<svg width="70" height="72" viewBox="0 0 70 72" fill="none" xmlns="http://www.w3.org/2000/svg">
<path fill-rule="evenodd" clip-rule="evenodd" d="M30.5333 1.50106C24.5413 2.79556 18.958 7.24535 16.2699 12.8691C14.4941 16.5844 13.9454 19.3402 14.1916 23.3064C14.4469 27.4148 15.4974 30.5488 17.7148 33.8158C20.668 38.1668 25.0389 41.2177 30.1794 42.5164C33.2697 43.2971 38.9484 43.0308 41.9765 41.9634C49.8286 39.195 55.4594 31.7795 55.9755 23.5264C56.3717 17.1878 54.305 11.7298 49.8044 7.23028C44.5834 2.01059 37.6787 -0.0422407 30.5333 1.50106ZM34.38 12.1258V21.5451L26.1551 26.2875L17.9302 31.0299L17.4466 30.0925C15.6495 26.6103 15.2288 20.463 16.5073 16.3734C17.9194 11.857 21.0093 7.82111 24.8343 5.4981C27.3364 3.97862 30.9603 2.72723 32.8938 2.71566L34.38 2.70655V12.1258ZM41.0445 3.50799C47.2104 5.61444 51.7299 10.2265 53.6514 16.3734C54.9299 20.4633 54.5093 26.6102 52.7118 30.0932L52.2278 31.0313L44.0033 26.2798L35.7788 21.5283V12.1174V2.70655L37.265 2.71566C38.0826 2.72057 39.7832 3.07731 41.0445 3.50799ZM42.664 11.596C42.3706 12.3627 42.7238 12.5187 44.7545 12.5187C45.7801 12.5187 46.6194 12.642 46.6194 12.7923C46.6194 12.943 45.6836 13.994 44.5401 15.1283L42.4608 17.1899L41.0421 15.9056C38.5389 13.6393 37.5122 14.726 39.8702 17.1458L41.1638 18.4736L40.0056 19.671C38.9044 20.8095 38.7998 21.6299 39.7555 21.6299C39.9968 21.6299 40.6483 21.1547 41.2033 20.5741L42.2125 19.5185L43.6907 20.9721C44.6478 21.9131 45.3629 22.3511 45.7193 22.2141C46.5606 21.8903 46.3935 21.3986 44.8849 19.7582L43.5001 18.2528L45.7399 16.0282L47.9797 13.8037L48.0864 15.8769C48.179 17.6812 48.2839 17.9504 48.8924 17.9504C49.5429 17.9504 49.5918 17.7166 49.5918 14.6213V11.2921L46.2242 11.1923C43.5525 11.1131 42.8171 11.1965 42.664 11.596ZM21.0128 11.9962C20.0004 12.5653 19.343 13.5209 19.343 14.4229C19.343 15.245 20.1679 15.0849 21.0261 14.0956C21.9322 13.0513 23.5208 12.9318 24.3465 13.8457C24.7752 14.3209 24.9364 15.3586 25.0127 18.1385C25.1057 21.5381 25.1641 21.8051 25.8124 21.8051C26.4607 21.8051 26.5191 21.5381 26.6122 18.1385C26.6884 15.3586 26.8496 14.3209 27.2783 13.8457C28.1208 12.9132 29.6503 13.0506 30.5022 14.1352C30.94 14.6934 31.4282 14.9717 31.7513 14.8473C32.9767 14.376 31.694 12.3347 29.8189 11.7719C28.6596 11.4239 28.2844 11.4688 26.9898 12.1108C25.6498 12.7752 25.4375 12.7962 24.9116 12.3193C24.045 11.5336 22.12 11.3741 21.0128 11.9962ZM9.08535 21.8636C8.95701 21.9919 8.8521 22.8767 8.8521 23.8299V25.5628L7.63795 25.3343C6.28462 25.0799 4.54593 25.7825 4.00005 26.8044C3.82066 27.1408 3.07196 34.7084 2.33689 43.6216L1 59.827L1.96167 60.7907C2.92229 61.7534 2.92893 61.7544 8.24817 61.7951C14.2857 61.841 17.5442 62.3754 23.1949 64.2467C26.5775 65.367 26.9279 65.5675 27.5661 66.7498C27.948 67.4567 28.9356 68.5493 29.7612 69.178C33.7799 72.2383 39.2904 71.3584 42.2877 67.1777C43.6298 65.3057 44.8863 64.6812 50.0296 63.3296C54.439 62.1707 57.0022 61.868 62.2491 61.8851L67.213 61.9013L68.1065 60.8373C68.5979 60.2521 69 59.5134 69 59.1959C69 57.9501 66.5346 28.4164 66.3696 27.6847C66.0528 26.2801 64.8302 25.4847 62.9891 25.4847H61.3067L61.3014 23.9953C61.2937 21.898 60.986 21.5647 59.1739 21.6947C57.4086 21.8212 56.9603 22.7783 58.5783 22.9654C59.7355 23.0993 59.5778 22.041 60.9605 38.9763C61.5431 46.1076 62.1096 52.7416 62.2201 53.719L62.4204 55.4957L57.8632 55.9018C49.9562 56.6066 44.0341 58.1951 38.6697 61.0497L35.7907 62.5821L35.6973 53.7625C35.6116 45.6846 35.5525 44.933 34.992 44.825C34.422 44.715 34.38 45.3219 34.38 53.6542V62.6014L31.8447 61.2312C26.4499 58.316 20.1267 56.5586 12.6988 55.9103C10.1023 55.6839 7.94009 55.4754 7.89428 55.447C7.78972 55.3829 10.1631 26.5573 10.4404 24.521C10.6132 23.2528 10.7646 23.0316 11.4587 23.0316C12.2445 23.0316 12.8719 22.2705 12.4414 21.8395C12.156 21.5532 9.3749 21.5731 9.08535 21.8636ZM43.4057 27.7446C47.6734 30.2407 51.1654 32.4786 51.1654 32.7183C51.1654 32.958 50.3188 34.0699 49.2841 35.1892C43.1074 41.8698 32.9312 43.3133 25.113 38.6178C22.8379 37.2511 20.1774 34.8174 19.2808 33.2818L18.7178 32.3181L26.8111 27.6689C31.2624 25.1122 35.0713 23.0621 35.2752 23.1133C35.4791 23.1648 39.1376 25.2488 43.4057 27.7446ZM30.883 27.5445C30.883 28.0989 31.1191 28.7489 31.4076 28.989C32.1472 29.6043 32.1384 36.2205 31.3964 37.2035C30.705 38.1195 30.7183 39.8524 31.4163 39.8524C31.7094 39.8524 32.093 39.4739 32.2685 39.0117C33.2312 36.4735 36.9275 36.4735 37.8902 39.0117C38.0658 39.4739 38.4494 39.8524 38.7425 39.8524C39.4405 39.8524 39.4537 38.1195 38.7624 37.2035C38.0203 36.2205 38.0116 29.6043 38.7512 28.989C39.4565 28.4024 39.4499 26.536 38.7425 26.536C38.4494 26.536 38.0724 26.8973 37.9046 27.3388C37.4384 28.5678 36.6023 29.0847 35.0794 29.0847C33.5565 29.0847 32.7203 28.5678 32.2542 27.3388C31.809 26.1659 30.883 26.3047 30.883 27.5445ZM8.5024 27.5214C8.5024 27.8704 7.95687 34.5959 7.29035 42.4673C6.62348 50.3384 6.14579 56.8883 6.22867 57.0229C6.3119 57.1571 8.39155 57.3579 10.8506 57.4686C16.1101 57.7059 21.224 58.6829 25.8156 60.3275C29.2492 61.5571 33.2477 63.6128 34.0198 64.5453C34.6458 65.3008 35.2997 65.2181 36.6097 64.2169C38.7001 62.6189 44.4932 60.1365 48.4633 59.137C52.5265 58.1141 58.0618 57.374 61.6494 57.374C62.7845 57.374 63.7941 57.243 63.893 57.0825C63.992 56.9223 63.5311 50.4172 62.8691 42.6271C62.2071 34.837 61.6634 28.1083 61.6609 27.6749C61.6571 27.0118 61.8445 26.8864 62.8376 26.8864C63.487 26.8864 64.2221 27.132 64.4707 27.4324C64.776 27.801 65.2946 32.5578 66.0657 42.0629C66.6941 49.8096 67.277 56.8144 67.361 57.6298C67.6169 60.114 67.4599 60.1817 61.1301 60.3019C54.9677 60.4193 52.3055 60.8741 46.1648 62.8583C42.4388 64.0624 42.3737 64.102 41.3236 65.8121C38.3323 70.6838 31.8192 70.6719 28.8209 65.7889C28.2274 64.8228 27.7001 64.0322 27.6487 64.0322C27.5976 64.0322 26.1404 63.5479 24.4108 62.9557C18.8048 61.0367 15.5005 60.4641 9.2018 60.3198C2.80758 60.1733 2.3855 60.017 2.72471 57.9168C2.81982 57.3292 3.38249 50.4617 3.97557 42.6559C4.56831 34.85 5.19671 28.1083 5.37156 27.6749C5.62754 27.0406 5.965 26.8864 7.09627 26.8864C8.22055 26.8864 8.5024 27.0136 8.5024 27.5214ZM36.4782 33.1942V35.6472H34.9045H33.3309V33.1942V30.7411H34.9045H36.4782V33.1942Z" fill="#E69126" stroke="#E69126" stroke-width="0.6"/>
</svg>
