<svg width="85" height="84" viewBox="0 0 85 84" fill="none" xmlns="http://www.w3.org/2000/svg">
<circle cx="42.5" cy="42" r="41" stroke="#E69126" stroke-width="2"/>
<circle cx="42" cy="41.5" r="28.5" stroke="#E69126" stroke-width="2"/>
<path d="M42.3877 18C46.6551 22.762 52.961 35.8363 42.3877 46.7915C34.7513 54.7037 26.4412 54.4839 21.5 53.385C22.8476 48.2567 28.9118 38.1321 42.3877 38.6595C55.8636 39.187 62.0775 48.6963 63.5 53.385C58.4091 54.7769 46.5203 54.7037 39.6925 43.275C32.8647 31.8463 38.6444 21.663 42.3877 18Z" stroke="#E69126" stroke-width="2"/>
<path d="M22.4095 12.4047C21.9852 13.1016 22.1649 14.0554 22.8108 14.5377C23.4857 15.0429 24.458 14.9304 25.0084 14.279C25.4359 13.7734 25.5588 13.2059 25.313 12.5954C25.0605 11.9713 24.5871 11.6021 23.9051 11.5919C23.1786 11.5815 22.5223 11.4075 21.9993 10.9001C21.6231 10.5358 21.3445 10.1086 21.4626 9.52781C21.7151 8.28461 23.0209 7.76336 24.0246 8.50827C24.6328 8.95963 24.9667 9.59529 25.1982 10.2984C25.4276 10.9952 25.7234 11.657 26.222 12.2013C26.5965 12.6109 27.0637 12.815 27.6192 12.6253C28.1798 12.4335 28.3925 11.9606 28.4822 11.416C28.519 11.1918 28.4506 11.0089 28.2261 10.9647C28.0002 10.9206 27.8616 11.0504 27.831 11.2891C27.7902 11.6047 27.7316 11.9325 27.3561 12.0084C26.984 12.0845 26.754 11.8222 26.5497 11.5705C26.1997 11.1384 25.9961 10.628 25.8314 10.0994C25.5962 9.3443 25.2223 8.67596 24.6373 8.14007C23.7121 7.29095 22.395 7.26455 21.609 8.07802C20.5371 9.18736 20.4952 10.2929 21.487 11.345C21.8017 11.6788 22.2181 11.8549 22.6326 12.0678C22.5531 12.188 22.4768 12.294 22.4095 12.4047ZM24.4204 12.4637C24.82 12.7759 24.8859 13.3869 24.5652 13.8105C24.2555 14.2202 23.6362 14.3107 23.2203 14.0072C22.7822 13.6873 22.7075 13.0801 23.0514 12.6329C23.3956 12.1883 23.9753 12.1168 24.4204 12.4637Z" fill="#E69126"/>
<path d="M56.1866 9.33435C55.934 9.17956 55.6593 9.0626 55.4678 9.38854C55.2845 9.7009 55.4839 9.89892 55.7478 10.0582C56.6372 10.5962 57.5231 11.1401 58.4084 11.6849C58.6233 11.8178 58.8439 11.9471 59.0656 11.7294C59.2995 11.4994 59.2086 11.2267 59.0482 11.02C58.8063 10.7073 58.7722 10.3551 58.7844 9.99388C58.8122 9.1348 59.5815 8.40457 60.3152 8.51581C60.977 8.6156 61.4689 8.97536 61.834 9.51754C62.1136 9.9338 62.0157 10.6928 61.6682 11.0515C61.2154 11.5172 60.701 11.8087 60.0267 11.6953C59.7876 11.655 59.6281 11.7579 59.541 11.974C59.4826 12.1168 59.4054 12.2864 59.5777 12.392C60.6111 13.0252 61.644 13.6592 62.6929 14.2669C62.851 14.3579 63.1072 14.3703 63.2239 14.1116C63.3378 13.8594 63.2413 13.6754 63.0315 13.5341C62.8873 13.4375 62.7379 13.3495 62.5908 13.2594C62.1464 12.9871 61.702 12.7148 61.2237 12.4218C62.6188 11.613 63.1234 10.6225 62.766 9.5006C62.4195 8.41217 61.1049 7.5647 59.9572 7.69095C58.739 7.82417 58.1065 8.63826 57.9066 10.387C57.3079 10.0213 56.7474 9.67675 56.1866 9.33435ZM61.3587 16.0614C61.6223 16.2229 61.8947 16.2942 62.0745 15.9762C62.2405 15.6824 62.041 15.496 61.7996 15.3493C59.5431 13.9679 57.2879 12.5861 55.0324 11.203C54.7755 11.0456 54.5007 10.946 54.3118 11.2619C54.1291 11.5677 54.3152 11.7552 54.5902 11.919C55.7027 12.5843 56.8046 13.2688 57.9106 13.9464C59.0601 14.6519 60.2106 15.3556 61.3587 16.0614Z" fill="#E69126"/>
<path d="M74.8912 41.5054C74.5997 41.4713 74.5052 41.6474 74.5002 41.9003C74.4951 42.1468 74.616 42.293 74.8648 42.293C75.1716 42.293 75.4814 42.3154 75.7862 42.2877C76.1072 42.2588 76.2301 42.3592 76.1722 42.7092C76.0208 43.6323 75.7516 44.4945 75.0812 45.1605C74.876 45.3643 74.6993 45.5916 74.937 45.8594C75.1818 46.1348 75.4052 45.9448 75.6033 45.7399C76.4048 44.9086 76.7705 43.8681 76.9158 42.7231C76.934 42.5833 76.8843 42.3517 77.0143 42.3293C77.3129 42.277 77.6339 42.2588 77.9275 42.3218C78.1195 42.3634 78.0646 42.6484 78.088 42.8276C78.2282 43.929 78.6152 44.9075 79.3507 45.7197C79.5386 45.9278 79.7661 46.1262 80.0272 45.8989C80.3309 45.6343 80.0688 45.3867 79.9053 45.2042C79.2481 44.47 78.9413 43.5928 78.8103 42.611C78.7696 42.309 78.8519 42.2866 79.0764 42.293C79.3984 42.3026 79.7214 42.2898 80.0445 42.2941C80.2872 42.2983 80.4884 42.2268 80.4996 41.9398C80.5107 41.6356 80.3106 41.5172 80.0495 41.5108C79.7275 41.5022 79.4035 41.4937 79.0815 41.514C78.8011 41.531 78.7676 41.4318 78.8021 41.1522C78.924 40.18 79.1607 39.2879 79.9927 38.6977C80.1857 38.5611 80.2161 38.3498 80.0597 38.1524C79.9043 37.9582 79.7133 37.9539 79.5335 38.115C79.3354 38.2922 79.1343 38.4704 78.9636 38.6753C78.3724 39.3828 78.1479 40.2462 78.0382 41.1565C78.024 41.2738 78.087 41.4713 77.9336 41.4894C77.6461 41.5246 77.3373 41.5566 77.0651 41.4809C76.8507 41.4211 76.9412 41.1202 76.9158 40.926C76.7705 39.8193 76.4018 38.8396 75.518 38.1439C75.3087 37.9795 75.0883 37.9219 74.9075 38.1577C74.7196 38.4021 74.8598 38.6678 75.0416 38.7842C75.6998 39.2089 75.9436 39.8759 76.095 40.6069C76.2819 41.5097 76.2758 41.5108 75.3992 41.5108C75.2295 41.5086 75.0589 41.5246 74.8912 41.5054Z" fill="#E69126"/>
<path d="M60.9662 71.3404C60.6018 70.8182 60.2408 70.2925 59.8683 69.776C59.7171 69.5666 59.5383 69.3139 59.2428 69.5381C58.9833 69.7347 59.1314 69.9655 59.2748 70.1707C59.3433 70.2695 59.4132 70.3686 59.4817 70.4674C60.2489 71.5703 61.0154 72.6723 61.7833 73.7747C61.9447 74.0058 62.1009 74.2309 61.8842 74.5203C61.5881 74.9151 61.1855 74.9052 60.8787 74.4679C60.039 73.269 59.2099 72.0628 58.375 70.8605C57.9381 70.2304 57.9342 70.2283 58.5016 69.7077C58.6953 69.5303 58.9592 69.3557 58.7032 69.0798C58.456 68.8134 58.239 69.0574 58.0368 69.212C57.9818 69.2538 57.9188 69.2927 57.8812 69.3475C57.6435 69.6982 57.3668 69.8493 56.9439 69.6268C56.7705 69.5359 56.5587 69.5832 56.3555 69.6414C55.8885 69.7757 55.7137 70.1584 55.591 70.5505C55.4478 71.0083 55.6496 71.4238 55.9095 71.7953C56.0103 71.9389 56.1658 71.933 56.3174 71.8195C56.4549 71.7169 56.549 71.6122 56.4773 71.4327C56.4215 71.2916 56.3385 71.1668 56.3026 71.0094C56.2475 70.7657 56.2582 70.5736 56.4675 70.4153C56.6406 70.2844 56.8349 70.2757 57.0001 70.3842C57.2267 70.5329 57.0308 70.7347 56.9974 70.8958C56.7271 72.2011 56.8727 73.4231 57.728 74.4888C58.2198 75.1013 58.963 75.2252 59.5515 74.7333C59.9603 74.3922 60.0837 74.5789 60.3077 74.895C60.826 75.627 61.5888 75.7602 62.1964 75.1506C62.5852 74.7599 62.9932 74.4973 63.4772 74.2422C64.0402 73.9453 64.4287 73.3449 65.1031 73.1604C65.2976 73.1071 65.3927 72.8948 65.2805 72.6932C65.1725 72.4994 64.9853 72.4577 64.7951 72.5847C64.3659 72.8704 64.1149 72.6641 63.8694 72.3031C63.0852 71.1496 62.284 70.008 61.4869 68.8636C61.3993 68.7372 61.3041 68.6137 61.1969 68.5058C61.0752 68.3839 60.9293 68.3603 60.7762 68.4664C60.6198 68.5748 60.6107 68.7311 60.676 68.8789C60.7455 69.0346 60.8474 69.1763 60.9451 69.3172C61.7483 70.479 62.5493 71.6412 63.3606 72.7974C63.5986 73.1373 63.5403 73.4164 63.222 73.6371C62.915 73.85 62.6497 73.7856 62.433 73.4645C62.0193 72.8506 61.5919 72.2462 61.1696 71.6371C61.1032 71.538 61.0347 71.4392 60.9662 71.3404ZM59.4243 73.6245C59.5708 73.8323 59.4335 73.9491 59.313 74.059C59.0869 74.2674 58.8192 74.4002 58.5174 74.2401C58.3714 74.1626 58.2337 74.035 58.1418 73.8972C57.5933 73.0733 57.4814 72.1698 57.6536 71.0777C58.2928 71.9994 58.8526 72.8155 59.4243 73.6245Z" fill="#E69126"/>
<path d="M25.2894 70.5065C24.771 71.1979 24.2581 71.8942 23.7435 72.5883C23.4391 72.9985 23.0613 73.0509 22.6322 72.7408C22.2642 72.4751 22.2084 72.106 22.4924 71.7032C22.7758 71.3024 23.0736 70.9123 23.3639 70.5167C23.5742 70.2303 23.7402 69.9228 23.7469 69.5583C23.749 69.4339 23.8161 69.3826 23.8982 69.31C24.2897 68.9633 24.5852 69.2313 24.8882 69.4497C25.0191 69.5441 25.1528 69.6097 25.3067 69.5201C25.4486 69.4375 25.4642 69.3005 25.4341 69.1532C25.1774 68.7013 24.5282 68.4251 24.0356 68.5584C24.0112 68.5654 23.8346 68.624 23.7581 68.6892C23.609 68.8231 23.5021 68.8583 23.3528 68.6652C23.1905 68.4558 22.9789 68.2792 22.7395 68.1504C22.3626 67.9474 21.9839 67.9223 21.6148 68.1678C21.1878 68.4523 21.0145 68.9721 21.1859 69.4258C21.3539 69.8705 21.9187 70.1718 22.4538 70.0857C22.6493 70.0545 22.8387 69.982 23.1178 69.9042C22.7313 70.4263 22.3957 70.8718 22.0682 71.3233C21.4461 72.1807 21.7763 73.1556 22.7987 73.4295C23.0695 73.5023 23.2794 73.5484 23.3109 73.8862C23.3251 74.0402 23.4884 74.1493 23.6177 74.2525C23.792 74.3916 23.9832 74.4697 24.1371 74.2675C24.2841 74.0744 24.1528 73.9188 23.9779 73.8086C23.7767 73.6821 23.7461 73.5311 23.9031 73.347C24.502 72.5301 25.1007 71.7121 25.7007 70.896C25.7835 70.7829 25.8906 70.6787 25.85 70.4928C25.8106 70.3076 25.5291 70.186 25.2894 70.5065ZM23.0002 69.2124C22.9461 69.3901 22.6776 69.4491 22.4758 69.5024C22.2514 69.5615 22.0414 69.5278 21.8525 69.3813C21.6481 69.2233 21.6503 69.0256 21.7589 68.8249C21.8779 68.6045 22.0796 68.5244 22.3182 68.5959C22.4369 68.6312 22.542 68.7131 22.6472 68.7702C22.766 68.9348 23.0591 69.0192 23.0002 69.2124Z" fill="#E69126"/>
<path d="M5.14524 39.882C4.63474 39.6568 4.02178 39.5258 3.91788 38.8276C3.89519 38.6749 3.71114 38.5943 3.53584 38.6297C3.34253 38.6693 3.24285 38.7965 3.23235 38.9929C3.20906 39.417 3.47693 39.682 3.7638 39.9417C4.23673 40.3677 4.87734 40.4757 5.42057 40.7665C6.36333 41.2713 6.38496 42.2388 5.46374 42.7834C5.28506 42.8891 5.0939 42.9775 4.90374 43.0658C4.49155 43.257 4.08869 43.4596 3.758 43.7786C3.50503 44.0217 3.38912 44.3152 3.38387 44.65C3.38137 44.8442 3.49204 44.9714 3.7008 44.99C3.87427 45.0054 4.05706 44.9465 4.07225 44.7783C4.13619 44.0703 4.7517 43.9232 5.24916 43.6774C5.80133 43.4039 6.33628 43.126 6.65558 42.5779C7.68557 43.8858 8.57283 44.2553 9.70468 43.8522C10.7297 43.4867 11.339 42.5581 11.2517 41.4926C11.1698 40.4865 10.4455 39.6848 9.4095 39.4534C8.3118 39.2088 7.34034 39.7135 6.63636 40.94C6.26188 40.3769 5.70863 40.1313 5.14524 39.882ZM10.5662 41.6579C10.5852 42.5152 9.84602 43.2692 8.95804 43.2988C8.04491 43.329 7.25375 42.5932 7.25223 41.7111C7.24986 40.8359 7.969 40.1282 8.88434 40.1068C9.78055 40.0848 10.5469 40.7919 10.5662 41.6579Z" fill="#E69126"/>
<path d="M7 62L17.1523 56.2933" stroke="#E69126" stroke-width="2"/>
<path d="M6.15723 20.6699L16.7122 27.2668" stroke="#E69126" stroke-width="2"/>
<path d="M42.5 70V84" stroke="#E69126" stroke-width="2"/>
<path d="M42.5 0V13" stroke="#E69126" stroke-width="2"/>
<path d="M67.7275 56.2935L78.2825 62.4505" stroke="#E69126" stroke-width="2"/>
<path d="M67.7275 27.2671L77.8427 20.6702" stroke="#E69126" stroke-width="2"/>
</svg>
