<svg width="65" height="76" viewBox="0 0 65 76" fill="none" xmlns="http://www.w3.org/2000/svg">
<path d="M28.0184 2C32.1517 2 36.1158 3.65261 39.0385 6.59427C41.9612 9.53593 43.6031 13.5257 43.6031 17.6858C43.6031 21.846 41.9612 25.8357 39.0385 28.7774C36.1158 31.719 32.1517 33.3716 28.0184 33.3716C23.885 33.3716 19.921 31.719 16.9983 28.7774C14.0756 25.8357 12.4336 21.846 12.4336 17.6858C12.4336 13.5257 14.0756 9.53593 16.9983 6.59427C19.921 3.65261 23.885 2 28.0184 2Z" stroke="#E69126" stroke-width="4"/>
<path d="M47.0727 40.2028L48.3663 36.7859C49.5457 33.6879 53.2209 32.1572 56.3201 33.4738L58.0937 34.2301C60.2558 35.1504 62.0477 36.8178 62.4226 39.0593C64.5116 51.4739 53.7008 69.1323 41.2582 73.638C39.0092 74.449 36.5773 73.8203 34.6529 72.5173L33.0713 71.4467C32.4219 71.0108 31.8752 70.4396 31.4688 69.7727C31.0624 69.1058 30.8061 68.3589 30.7174 67.5836C30.6288 66.8083 30.7099 66.0231 30.9553 65.2822C31.2007 64.5412 31.6045 63.8621 32.1388 63.2917L34.63 60.5263C35.2152 59.8841 35.9618 59.4091 36.7927 59.1504C37.6235 58.8917 38.5086 58.8587 39.3566 59.0548L44.9562 60.376C49.3963 57.6121 51.7764 53.7245 52.0964 48.7131L48.0829 44.7951C47.4835 44.2112 47.0685 43.4654 46.889 42.6494C46.7095 41.8335 46.7733 40.983 47.0727 40.2028Z" stroke="#E69126" stroke-width="4"/>
<path d="M23.5393 72C9.92237 70.0482 2 60.2945 2 50.7835V48.0876C2 45.9426 2.84028 43.8855 4.33598 42.3688C5.83169 40.8521 7.8603 40 9.97554 40H42" stroke="#E69126" stroke-width="4" stroke-linecap="round"/>
</svg>
