<svg width="10" height="10" viewBox="0 0 10 10" fill="none" xmlns="http://www.w3.org/2000/svg">
<path d="M9.41667 10C8.25926 10 7.11574 9.74778 5.98611 9.24333C4.85648 8.73889 3.8287 8.02352 2.90278 7.09722C1.97685 6.17093 1.26167 5.14315 0.757222 4.01389C0.252778 2.88463 0.00037037 1.74111 0 0.583333C0 0.416667 0.0555555 0.277778 0.166667 0.166667C0.277778 0.0555555 0.416667 0 0.583333 0H2.83333C2.96296 0 3.0787 0.044074 3.18056 0.132222C3.28241 0.22037 3.34259 0.324444 3.36111 0.444444L3.72222 2.38889C3.74074 2.53704 3.73611 2.66204 3.70833 2.76389C3.68056 2.86574 3.62963 2.9537 3.55556 3.02778L2.20833 4.38889C2.39352 4.73148 2.61333 5.06241 2.86778 5.38167C3.12222 5.70093 3.40241 6.00889 3.70833 6.30556C3.99537 6.59259 4.2963 6.85889 4.61111 7.10444C4.92593 7.35 5.25926 7.57444 5.61111 7.77778L6.91667 6.47222C7 6.38889 7.10889 6.32648 7.24333 6.285C7.37778 6.24352 7.50963 6.23185 7.63889 6.25L9.55556 6.63889C9.68519 6.67593 9.79167 6.74315 9.875 6.84056C9.95833 6.93796 10 7.04667 10 7.16667V9.41667C10 9.58333 9.94445 9.72222 9.83333 9.83333C9.72222 9.94445 9.58333 10 9.41667 10Z" fill="white"/>
</svg>
