<svg width="166" height="166" viewBox="0 0 166 166" fill="none" xmlns="http://www.w3.org/2000/svg">
<path d="M144.673 21.3263L163.109 25.0113C164.099 25.2093 164.913 25.9353 165.199 26.9143C165.343 27.3899 165.356 27.8957 165.236 28.378C165.116 28.8603 164.868 29.301 164.517 29.6533L149.414 44.7673C147.604 46.5669 145.157 47.579 142.605 47.5833H130.076L98.616 79.0544C99.2162 81.3206 99.3266 83.6887 98.9398 86.001C98.553 88.3132 97.6779 90.5165 96.3728 92.464C95.0677 94.4115 93.3626 96.0586 91.3711 97.2954C89.3795 98.5323 87.1473 99.3305 84.823 99.637C82.4988 99.9435 80.1359 99.7512 77.8918 99.0729C75.6477 98.3945 73.5739 97.2458 71.8086 95.7031C70.0433 94.1605 68.627 92.2594 67.654 90.1264C66.6811 87.9935 66.1738 85.6777 66.166 83.3333C66.1655 80.8014 66.7476 78.3033 67.8674 76.0325C68.9872 73.7616 70.6146 71.7789 72.6235 70.2379C74.6325 68.6969 76.9692 67.6389 79.4526 67.1458C81.9361 66.6527 84.4997 66.7377 86.945 67.3943L118.416 35.9123V23.4053C118.416 20.8533 119.428 18.4003 121.232 16.5963L136.346 1.48234C136.698 1.13176 137.139 0.883208 137.621 0.76312C138.104 0.643031 138.609 0.655894 139.085 0.800341C140.064 1.08634 140.79 1.90034 140.988 2.89034L144.673 21.3263Z" fill="#F7971D"/>
<path d="M16.6657 83.3328C16.677 92.7703 18.7121 102.096 22.6339 110.68C26.5557 119.264 32.2728 126.907 39.3996 133.094C46.5265 139.281 54.8973 143.867 63.9473 146.544C72.9974 149.22 82.5163 149.925 91.8618 148.61C101.207 147.295 110.162 143.991 118.122 138.921C126.082 133.851 132.862 127.133 138.005 119.219C143.148 111.306 146.534 102.382 147.935 93.049C149.335 83.7159 148.718 74.191 146.125 65.1168C145.761 64.0566 145.616 62.9335 145.7 61.8157C145.784 60.6979 146.094 59.6088 146.612 58.6148C147.13 57.6208 147.845 56.7426 148.714 56.0338C149.582 55.3249 150.585 54.8002 151.663 54.4916C152.741 54.183 153.87 54.0969 154.982 54.2385C156.094 54.3802 157.165 54.7467 158.131 55.3157C159.097 55.8847 159.937 56.6443 160.6 57.5483C161.262 58.4522 161.734 59.4816 161.987 60.5738C167.008 78.1466 166.055 96.8893 159.275 113.861C152.495 130.834 140.272 145.075 124.525 154.351C108.778 163.627 90.3969 167.413 72.2657 165.116C54.1345 162.818 37.279 154.566 24.3437 141.655C11.4224 128.723 3.16178 111.866 0.858696 93.7301C-1.44439 75.5947 2.34049 57.2079 11.6191 41.4566C20.8977 25.7052 35.1446 13.4812 52.123 6.70391C69.1014 -0.0734345 87.8498 -1.02037 105.425 4.01176C107.517 4.62349 109.283 6.03871 110.335 7.94813C111.388 9.85756 111.641 12.1059 111.041 14.2019C110.441 16.2979 109.035 18.071 107.131 19.1338C105.228 20.1966 102.981 20.4626 100.882 19.8738C91.0539 17.0517 80.7049 16.5516 70.6509 18.413C60.5969 20.2743 51.1128 24.4462 42.9468 30.5995C34.7807 36.7529 28.156 44.7194 23.5952 53.8707C19.0344 63.022 16.6622 73.1079 16.6657 83.3328Z" fill="#F7971D"/>
<path d="M49.6674 83.3331C49.668 89.3456 51.3102 95.2438 54.4168 100.392C57.5234 105.539 61.9764 109.741 67.2957 112.544C72.6149 115.347 78.5984 116.644 84.6008 116.296C90.6032 115.948 96.3967 113.968 101.356 110.569C106.315 107.162 110.248 102.464 112.73 96.9826C115.211 91.5016 116.147 85.4465 115.436 79.4721C115.244 78.0223 115.442 76.5475 116.009 75.1994C116.576 73.8514 117.492 72.6789 118.663 71.8027C119.834 70.9265 121.217 70.3782 122.671 70.2142C124.124 70.0503 125.595 70.2767 126.931 70.8701C128.268 71.4558 129.425 72.3854 130.285 73.5642C131.145 74.7429 131.677 76.1287 131.826 77.5801C133.022 87.7892 131.009 98.1172 126.068 107.131C121.127 116.144 113.503 123.396 104.253 127.879C95.0037 132.362 84.5878 133.855 74.4514 132.15C64.315 130.445 54.9607 125.627 47.687 118.364C40.4132 111.102 35.5808 101.755 33.8604 91.6209C32.14 81.487 33.617 71.069 38.0864 61.8127C42.5558 52.5564 49.7959 44.921 58.8017 39.9663C67.8076 35.0116 78.1325 32.9834 88.3434 34.1631C89.4367 34.2645 90.4988 34.5832 91.4674 35.1005C92.436 35.6177 93.2916 36.3231 93.984 37.1753C94.6764 38.0275 95.1918 39.0093 95.4998 40.0633C95.8079 41.1172 95.9025 42.222 95.778 43.313C95.6535 44.404 95.3125 45.4591 94.775 46.4166C94.2374 47.3741 93.5142 48.2146 92.6475 48.8889C91.7809 49.5632 90.7885 50.0577 89.7283 50.3435C88.6681 50.6293 87.5615 50.7005 86.4734 50.5531C81.8496 50.0162 77.1646 50.4636 72.726 51.8659C68.2874 53.2682 64.1957 55.5937 60.7196 58.6895C57.2435 61.7854 54.4617 65.5816 52.5569 69.8288C50.6521 74.0761 49.6673 78.6783 49.6674 83.3331Z" fill="#F7971D"/>
</svg>
