<svg width="40" height="43" viewBox="0 0 40 43" fill="none" xmlns="http://www.w3.org/2000/svg">
<path d="M29.7691 4.13462L28.1152 8.26923H11.5767C11.4389 7.99359 10.9979 6.86346 10.3364 4.54808C9.67482 2.23269 10.8876 1.65385 11.5767 1.65385H16.5383C16.6761 1.10256 17.5306 0 19.846 0C22.1614 0 23.0158 1.10256 23.1537 1.65385H28.1152C30.0998 1.65385 30.0447 3.30769 29.7691 4.13462Z" fill="#F7971D"/>
<path d="M28.1154 11.5769H11.5769C2.31538 21.1692 0 28.9423 0 33.0769C0 40.3538 5.23718 42.7243 7.85577 43H31.0096C37.9558 43 39.6923 36.3846 39.6923 33.0769C39.6923 23.8154 31.9744 14.8846 28.1154 11.5769Z" fill="#F7971D"/>
<path d="M18.1923 19.8462V17.3655H21.5V19.8462C23.9808 19.8462 25.0833 22.6027 25.2211 23.9809H22.3269C22.3269 22.327 20.6731 21.9136 19.8461 21.9136C18.1923 21.9136 17.3654 23.0211 17.3654 23.9809C17.3654 24.8078 18.1923 25.8414 20.6731 26.0482C24.6423 26.3789 25.6346 28.9424 25.6346 30.1828C25.6346 33.1597 22.8782 34.4552 21.5 34.7309V37.6251H18.1923V34.7309C15.2154 34.7309 14.1955 31.6988 14.0577 30.1828H16.9519C16.9519 31.8366 18.8814 32.2501 19.8461 32.2501C20.8109 32.2501 22.7404 31.9193 22.7404 30.5962C22.7404 29.2732 20.5352 28.6668 19.4327 28.5289C17.7788 28.3911 14.4711 27.3712 14.4711 24.3943C14.4711 21.4174 16.9519 20.1219 18.1923 19.8462Z" fill="white"/>
</svg>
