<svg width="71" height="86" viewBox="0 0 71 86" fill="none" xmlns="http://www.w3.org/2000/svg">
<path d="M8 85V76H16V85" stroke="#E69126" stroke-width="2"/>
<path d="M24 85V70H32V85" stroke="#E69126" stroke-width="2"/>
<path d="M39 85V63H48V85" stroke="#E69126" stroke-width="2"/>
<path d="M55 85V57H64V85" stroke="#E69126" stroke-width="2"/>
<path d="M54.7152 1H1V85H70V16.5122M54.7152 1L70 16.5122M54.7152 1V12.122C54.6181 13.5854 55.181 16.5122 58.2089 16.5122C61.2367 16.5122 67.3312 16.5122 70 16.5122" stroke="#E69126" stroke-width="2"/>
<circle cx="19.5" cy="13.5" r="6" stroke="#E69126"/>
<path d="M14 20.5H25C28.5899 20.5 31.5 23.4101 31.5 27V33.5H7.5V27C7.5 23.4101 10.4101 20.5 14 20.5Z" stroke="#E69126"/>
<path d="M19 28C19 28.5523 19.4477 29 20 29C20.5523 29 21 28.5523 21 28H20H19ZM20 20H19V28H20H21V20H20Z" fill="#E69126"/>
<path d="M38 17H45" stroke="#E69126" stroke-width="2" stroke-linecap="round"/>
<path d="M38 25L61 25" stroke="#E69126" stroke-width="2" stroke-linecap="round"/>
<path d="M38 34H54" stroke="#E69126" stroke-width="2" stroke-linecap="round"/>
<path d="M26.9253 52.8571L27.5935 52.2542L27.1307 51.7413L26.5156 52.0558L26.9253 52.8571ZM31.3084 57.7143L30.6403 58.3172L31.1045 58.8316L31.7205 58.5144L31.3084 57.7143ZM56 45L45.6197 44.5005L50.3773 53.7398L56 45ZM11 61L11.4097 61.8013L27.3351 53.6585L26.9253 52.8571L26.5156 52.0558L10.5903 60.1987L11 61ZM26.9253 52.8571L26.2572 53.4601L30.6403 58.3172L31.3084 57.7143L31.9766 57.1113L27.5935 52.2542L26.9253 52.8571ZM31.3084 57.7143L31.7205 58.5144L49.2107 49.5083L48.7986 48.7082L48.3866 47.908L30.8964 56.9141L31.3084 57.7143Z" fill="#E69126"/>
</svg>
