<svg width="89" height="77" viewBox="0 0 89 77" fill="none" xmlns="http://www.w3.org/2000/svg">
<path d="M29.0186 2.5C32.4835 2.50005 35.8096 3.88551 38.2646 6.35645C40.7203 8.82798 42.1034 12.1834 42.1035 15.6855C42.1035 19.1878 40.7203 22.544 38.2646 25.0156C35.8096 27.4864 32.4834 28.872 29.0186 28.8721C25.5535 28.8721 22.2266 27.4867 19.7715 25.0156C17.3158 22.544 15.9336 19.1878 15.9336 15.6855C15.9337 12.1834 17.316 8.82796 19.7715 6.35645C22.2266 3.88539 25.5535 2.5 29.0186 2.5Z" stroke="#E69126" stroke-width="5"/>
<path d="M24.5393 70C10.9224 68.0482 3 58.2945 3 48.7835V46.0876C3 43.9426 3.84028 41.8855 5.33598 40.3688C6.83169 38.8521 8.8603 38 10.9755 38H43" stroke="#E69126" stroke-width="5" stroke-linecap="round"/>
<path d="M66.5068 32.5C69.5634 32.5016 72.5793 33.2034 75.3223 34.5518C78.0653 35.9001 80.4632 37.8592 82.3311 40.2783C84.1988 42.6974 85.4874 45.5123 86.0977 48.5068C86.7079 51.5015 86.6229 54.5967 85.8506 57.5537C85.0782 60.5106 83.6383 63.2516 81.6416 65.5654C79.6449 67.8792 77.1442 69.7043 74.332 70.9014C71.5198 72.0984 68.4709 72.6354 65.4189 72.4707C62.5324 72.3149 59.7164 71.5345 57.1631 70.1875L50.0752 71.9561L46.0342 72.9629L47.0449 68.9229L48.8184 61.8408C47.2691 58.9087 46.4702 55.6358 46.501 52.3145C46.5334 48.8244 47.4789 45.4032 49.2432 42.3916C51.0074 39.3802 53.5292 36.8827 56.5576 35.1475C59.586 33.4123 63.0156 32.4995 66.5059 32.5H66.5068Z" stroke="#E69126" stroke-width="5"/>
<path d="M59 48H73.5" stroke="#E69126" stroke-width="5" stroke-linecap="round"/>
<path d="M59.5 55.5H67.5" stroke="#E69126" stroke-width="5" stroke-linecap="round"/>
</svg>
