<svg width="147" height="147" viewBox="0 0 147 147" fill="none" xmlns="http://www.w3.org/2000/svg">
<path d="M16.6364 73.5H4M143 73.5H130.364M73.5 130.364V143M73.5 4V16.6364M33.2911 113.709L24.3572 122.643M122.643 24.3572L113.709 33.2911M33.2911 33.2911L24.3572 24.3572M122.643 122.643L113.709 113.709M111.409 73.5C111.409 83.5541 107.415 93.1964 100.306 100.306C93.1964 107.415 83.5541 111.409 73.5 111.409C63.4459 111.409 53.8036 107.415 46.6942 100.306C39.5849 93.1964 35.5909 83.5541 35.5909 73.5C35.5909 63.4459 39.5849 53.8036 46.6942 46.6942C53.8036 39.5849 63.4459 35.5909 73.5 35.5909C83.5541 35.5909 93.1964 39.5849 100.306 46.6942C107.415 53.8036 111.409 63.4459 111.409 73.5Z" stroke="#F7971D" stroke-width="8" stroke-miterlimit="10" stroke-linecap="round" stroke-linejoin="round"/>
</svg>
