<svg width="145" height="145" viewBox="0 0 145 145" fill="none" xmlns="http://www.w3.org/2000/svg">
<path d="M15.6364 72.5H3M142 72.5H129.364M72.5 129.364V142M72.5 3V15.6364M32.2911 112.709L23.3572 121.643M121.643 23.3572L112.709 32.2911M32.2911 32.2911L23.3572 23.3572M121.643 121.643L112.709 112.709M110.409 72.5C110.409 82.5541 106.415 92.1964 99.3058 99.3058C92.1964 106.415 82.5541 110.409 72.5 110.409C62.4459 110.409 52.8036 106.415 45.6942 99.3058C38.5849 92.1964 34.5909 82.5541 34.5909 72.5C34.5909 62.4459 38.5849 52.8036 45.6942 45.6942C52.8036 38.5849 62.4459 34.5909 72.5 34.5909C82.5541 34.5909 92.1964 38.5849 99.3058 45.6942C106.415 52.8036 110.409 62.4459 110.409 72.5Z" stroke="#F7971D" stroke-width="5" stroke-miterlimit="10" stroke-linecap="round" stroke-linejoin="round"/>
</svg>
