<svg width="81" height="71" viewBox="0 0 81 71" fill="none" xmlns="http://www.w3.org/2000/svg">
<path d="M46.9912 1.00003C50.2576 0.993945 53.4524 1.96899 56.1717 3.80185C58.8909 5.63471 61.0124 8.24308 62.268 11.2971C63.5235 14.3511 63.8567 17.7136 63.2253 20.9594C62.594 24.2052 61.0265 27.1885 58.7211 29.5321C56.4156 31.8756 53.4758 33.4741 50.2733 34.1255M46.9912 42.6513C65.4427 42.6513 79.9912 55.097 79.9912 61.2954V70" stroke="#E69126" stroke-width="2" stroke-linecap="round" stroke-linejoin="round"/>
<path d="M67.9912 69V60.2954C67.9912 54.097 53.2223 41.6513 34.4912 41.6513C15.7583 41.6513 0.991211 53.9413 0.991211 60.1397V69M34.4912 2.00003C37.8071 1.99395 41.0503 2.96899 43.8108 4.80185C46.5712 6.63471 48.7249 9.24308 49.9994 12.2971C51.274 15.3511 51.6122 18.7136 50.9713 21.9594C50.3304 25.2052 48.7392 28.1885 46.3988 30.5321C44.0584 32.8756 41.0741 34.4741 37.8231 35.1255C34.5721 35.7768 31.2005 35.4518 28.1347 34.1914C25.0689 32.9311 22.4466 30.792 20.5993 28.0448C18.752 25.2975 17.7627 22.0654 17.7566 18.7573V18.7265C17.7566 14.2957 19.5187 10.0459 22.6562 6.90996C25.7937 3.77403 30.0501 2.00818 34.4912 2.00003Z" stroke="#E69126" stroke-width="2" stroke-linecap="round" stroke-linejoin="round"/>
</svg>
