<svg width="27" height="27" viewBox="0 0 27 27" fill="none" xmlns="http://www.w3.org/2000/svg">
<path fill-rule="evenodd" clip-rule="evenodd" d="M4.5 0.75C4.5 0.551088 4.57902 0.360322 4.71967 0.21967C4.86032 0.0790178 5.05109 0 5.25 0H21.75C21.9489 0 22.1397 0.0790178 22.2803 0.21967C22.421 0.360322 22.5 0.551088 22.5 0.75V1.5H26.25C26.4489 1.5 26.6397 1.57902 26.7803 1.71967C26.921 1.86032 27 2.05109 27 2.25V6.75C27 7.74456 26.6049 8.69839 25.9016 9.40165C25.1984 10.1049 24.2446 10.5 23.25 10.5H21.9878C21.4515 12.0127 20.5211 13.3548 19.2926 14.3877C18.0642 15.4206 16.5823 16.1068 15 16.3755V21H19.5C19.6989 21 19.8897 21.079 20.0303 21.2197C20.171 21.3603 20.25 21.5511 20.25 21.75V26.25C20.25 26.4489 20.171 26.6397 20.0303 26.7803C19.8897 26.921 19.6989 27 19.5 27H7.5C7.30109 27 7.11032 26.921 6.96967 26.7803C6.82902 26.6397 6.75 26.4489 6.75 26.25V21.75C6.75 21.5511 6.82902 21.3603 6.96967 21.2197C7.11032 21.079 7.30109 21 7.5 21H12V16.3755C10.4177 16.1068 8.93579 15.4206 7.70736 14.3877C6.47894 13.3548 5.54853 12.0127 5.01225 10.5H3.75C2.75544 10.5 1.80161 10.1049 1.09835 9.40165C0.395088 8.69839 0 7.74456 0 6.75V2.25C0 2.05109 0.0790178 1.86032 0.21967 1.71967C0.360322 1.57902 0.551088 1.5 0.75 1.5H4.5V0.75ZM22.5 7.5V3H25.5V6.75C25.5 7.34674 25.2629 7.91903 24.841 8.34099C24.419 8.76295 23.8467 9 23.25 9H22.5V7.5ZM4.5 3H1.5V6.75C1.5 7.34674 1.73705 7.91903 2.15901 8.34099C2.58097 8.76295 3.15326 9 3.75 9H4.5V3Z" fill="#F7971D"/>
</svg>
