<svg width="50" height="50" viewBox="0 0 50 50" fill="none" xmlns="http://www.w3.org/2000/svg">
<rect x="21.1538" y="6.73077" width="25" height="27.8846" fill="#F7971D"/>
<path d="M10.8274 16.1058C7.12083 16.1058 5.75293 14.343 5.5323 13.4615C3.94378 13.4615 2.88477 16.5997 2.88477 18.089V26.6827C2.88477 30.649 8.17984 34.6154 12.1511 34.6154H16.1225V31.9712H13.4749C10.2979 31.9712 9.50361 28.4455 9.50361 26.6827H16.1225V16.1058H10.8274Z" fill="#F7971D"/>
<path d="M6.12647 11.9823C2.17634 12.9882 1.1888 16.5927 1.1888 18.2692C-2.26757 10.7249 2.62896 4.22832 5.50927 1.9231C7.9781 3.93493 13.1215 4.43789 15.3846 4.43789V14.4971H9.82973C7.85466 14.4971 7.36089 13.6588 7.36089 13.2397C7.36089 11.2278 9.41826 10.7249 10.4469 10.7249C11.4756 10.5153 11.569 9.69606 10.4469 9.46747C7.9781 8.96452 6.53795 10.9344 6.12647 11.9823Z" fill="#F7971D"/>
<path d="M15.7692 38.986V36.5385C6.99993 36.5385 4.80762 42.2494 4.80762 45.1049V50H23.0768V45.7168C17.2307 43.7587 15.7692 40.4137 15.7692 38.986Z" fill="#F7971D"/>
<path d="M23.5946 43.2692V35.7441H21.0798C19.5709 35.7441 19.1937 34.2441 19.1937 33.4941V7.52508C19.1937 5.51839 20.4511 5.01672 21.0798 5.01672H46.2277C48.2396 5.01672 48.7425 6.68896 48.7425 7.52508V33.2358C48.7425 34.7408 47.4851 35.5351 46.8564 35.7441H44.3416V43.2692C48.3653 42.2659 49.7904 39.0886 49.9999 37.6254V2.50836C49.9999 0.501672 48.7425 0 48.1138 0H40.5695L38.6834 3.13545H29.2529L27.3668 0H20.4511C17.9363 0 17.3076 1.67224 17.3076 2.50836V37.6254C17.3076 40.6354 21.4989 42.6421 23.5946 43.2692Z" fill="#F7971D"/>
<path d="M26.9233 9.61536H23.0771V13.4615" stroke="#F7971D"/>
<path d="M39.4229 9.61536H43.269V13.4615" stroke="#F7971D"/>
<path d="M26.9233 30.7692H23.0771V26.9231" stroke="#F7971D"/>
<path d="M39.4229 30.7692H43.269V26.9231" stroke="#F7971D"/>
<path d="M26.9229 21.1539C26.9229 23.5265 28.1729 28.3812 33.1729 28.8192C38.1729 29.2572 39.4229 24.2565 39.4229 21.7014" stroke="white"/>
<path d="M25.0715 17.4064C24.5468 21.5616 27.0391 22.1676 28.3509 21.9512C27.826 19.8736 31.6304 17.19 33.5982 16.1079C29.9253 19.2243 33.3796 20.0034 35.5659 20.0034C36.2218 20.0034 37.7959 20.2631 38.8453 21.3019C39.8947 22.3407 41.0316 22.1676 41.4688 21.9512C44.7483 12.8616 37.5335 10.9139 34.91 10.9139C32.8112 10.9139 31.412 10.0482 30.9747 9.61536C29.2256 10.481 25.5962 13.2512 25.0715 17.4064Z" fill="#F7971D" stroke="white"/>
</svg>
