<svg width="29" height="28" viewBox="0 0 29 28" fill="none" xmlns="http://www.w3.org/2000/svg">
<path d="M1.31334 27.117C3.11492 25.8302 4.63768 23.5782 5.17386 22.6131C2.27837 20.3611 0.670002 16.712 0.669922 13.6052C0.669823 9.74469 1.95676 7.57315 2.92189 6.20588C4.20873 4.38286 8.26227 0.736816 14.1817 0.736816C19.9726 0.736816 23.5114 3.41773 25.4417 5.56246C26.4068 6.63483 28.6587 9.68035 28.6587 13.2835C28.6587 16.8866 26.7284 19.9322 25.7633 21.0045C24.262 22.6131 20.2299 25.8302 16.112 25.8302C11.9941 25.8302 9.6778 25.1868 9.03438 24.8651C6.71807 27.4387 2.92189 27.4387 1.31334 27.117Z" fill="#F7971D"/>
<path d="M8.39062 10.7097H20.9373" stroke="white" stroke-width="2" stroke-linecap="round"/>
<path d="M9.03418 15.5354H17.3986" stroke="white" stroke-width="2" stroke-linecap="round"/>
</svg>
