<svg width="144" height="145" viewBox="0 0 144 145" fill="none" xmlns="http://www.w3.org/2000/svg">
<path d="M11.7538 11.4414C6.12641 14.2551 3.99684 19.2988 5.18849 41.1423C6.12656 58.3375 4.25056 70.5305 3 72.4064C4.25056 76.7833 5.81377 83.3488 5.18849 102.42C4.38774 126.843 5.81377 129.62 11.754 133.059M11.7538 11.4414C13.9424 7.37698 18.8565 3.84445 40.5169 4.87585C60.2133 5.81372 68.9673 3.93792 72.0937 3C73.7611 3.83371 81.7856 5.37607 100.544 4.87585C123.992 4.25056 129.307 6.12641 132.121 11.4413M11.7538 11.4414L132.121 133.059M132.121 11.4413C136.498 13.3172 140.249 17.3815 138.999 41.1423C138.895 48.6456 139.124 65.4032 140.875 72.4063C140.041 76.0538 138.499 87.163 138.999 102.42C139.624 121.491 138.999 130.558 132.121 133.059M132.121 11.4413L11.754 133.059M132.121 133.059C129.307 138.374 126.806 140.362 100.544 139.312C84.912 138.686 76.4707 140.562 72.0937 141.5C68.342 140.458 57.3996 138.999 41.7675 139.312C23.0024 139.687 14.8804 139.624 11.754 133.059" stroke="#F7971D" stroke-width="5"/>
<path d="M23.0094 87.1005C30.7629 98.3556 40.2046 100.857 43.9563 100.544C44.269 106.484 46.7701 114.3 58.0252 122.116C67.854 128.942 71.1561 136.81 72.094 141.187C72.7193 138.061 73.6572 130.87 85.8502 122.116C97.571 113.701 100.232 104.921 99.9191 100.544C103.045 100.544 113.05 98.9808 121.179 86.4752C126.944 77.6052 135.873 72.719 140.562 72.4063C137.123 72.0937 128.057 67.7167 121.179 58.0248C113.35 46.9935 104.296 43.7476 100.232 43.6433C100.232 37.0779 95.8548 29.8871 84.9123 21.7585C75.7797 14.9743 72.7193 8.3149 72.094 3C71.4687 6.43905 69.2803 13.9424 58.9631 21.7585C47.1283 30.7243 43.9563 37.3905 44.269 44.2686C38.9541 43.3307 31.2631 46.7073 23.0094 57.7122C14.7557 68.7172 6.4394 72.0937 3.31299 72.4064C6.64783 72.6148 15.2559 75.8454 23.0094 87.1005Z" stroke="#F7971D" stroke-width="5"/>
</svg>
