<svg width="141" height="142" viewBox="0 0 141 142" fill="none" xmlns="http://www.w3.org/2000/svg">
<path d="M10.7538 10.4414C5.12641 13.2551 2.99684 18.2988 4.18849 40.1423C5.12656 57.3375 3.25056 69.5305 2 71.4064C3.25056 75.7833 4.81377 82.3488 4.18849 101.42C3.38774 125.843 4.81377 128.62 10.754 132.059M10.7538 10.4414C12.9424 6.37698 17.8565 2.84445 39.5169 3.87585C59.2133 4.81372 67.9673 2.93792 71.0937 2C72.7611 2.83371 80.7856 4.37607 99.544 3.87585C122.992 3.25056 128.307 5.12641 131.121 10.4413M10.7538 10.4414L131.121 132.059M131.121 10.4413C135.498 12.3172 139.249 16.3815 137.999 40.1423C137.895 47.6456 138.124 64.4032 139.875 71.4063C139.041 75.0538 137.499 86.163 137.999 101.42C138.624 120.491 137.999 129.558 131.121 132.059M131.121 10.4413L10.754 132.059M131.121 132.059C128.307 137.374 125.806 139.362 99.544 138.312C83.912 137.686 75.4707 139.562 71.0937 140.5C67.342 139.458 56.3996 137.999 40.7675 138.312C22.0024 138.687 13.8804 138.624 10.754 132.059" stroke="#F7971D" stroke-width="2"/>
<path d="M22.0094 86.1005C29.7629 97.3556 39.2046 99.8567 42.9563 99.544C43.269 105.484 45.7701 113.3 57.0252 121.116C66.854 127.942 70.1561 135.81 71.094 140.187C71.7193 137.061 72.6572 129.87 84.8502 121.116C96.571 112.701 99.2317 103.921 98.9191 99.544C102.045 99.544 112.05 97.9808 120.179 85.4752C125.944 76.6052 134.873 71.719 139.562 71.4063C136.123 71.0937 127.057 66.7167 120.179 57.0248C112.35 45.9935 103.296 42.7476 99.2317 42.6433C99.2317 36.0779 94.8548 28.8871 83.9123 20.7585C74.7797 13.9743 71.7193 7.3149 71.094 2C70.4687 5.43905 68.2803 12.9424 57.9631 20.7585C46.1283 29.7243 42.9563 36.3905 43.269 43.2686C37.9541 42.3307 30.2631 45.7073 22.0094 56.7122C13.7557 67.7172 5.4394 71.0937 2.31299 71.4064C5.64783 71.6148 14.2559 74.8454 22.0094 86.1005Z" stroke="#F7971D" stroke-width="2"/>
</svg>
