<svg width="105" height="86" viewBox="0 0 105 86" fill="none" xmlns="http://www.w3.org/2000/svg">
<path d="M44.8604 75.0005H24.8604C23.1937 75.0005 19.8604 76.1005 19.8604 80.5005C19.8604 84.9005 23.1937 86.0005 24.8604 86.0005H44.8604C45.9715 86.0005 49.8604 84.9005 49.8604 80.5005C49.8604 76.1005 45.9715 75.0005 44.8604 75.0005Z" fill="#E69126"/>
<path d="M23.8604 69.2192L11.4541 57.2613C10.3513 55.8377 8.14578 51.624 8.14578 46.1575C8.14578 40.691 4.83745 29.0747 3.18329 23.9499C2.6319 21.3875 2.42044 16.9326 5.66454 16.2627C9.80009 15.4086 13.1084 27.3656 14.7631 33.3454" stroke="#E69126" stroke-width="5"/>
<path d="M26.2041 56.0824L16.3162 46.5141C15.2176 45.3543 13.6795 42.3388 16.3162 39.5553C18.953 36.7718 21.8099 38.9754 22.9087 40.4252L37.7404 55.2127C39.1137 56.3725 41.8604 59.388 41.8604 62.1715C41.8604 64.955 41.8604 72.0298 41.8604 75.2192" stroke="#E69126" stroke-width="5"/>
<path d="M59.8604 75.0005H79.8604C81.527 75.0005 84.8604 76.1005 84.8604 80.5005C84.8604 84.9005 81.527 86.0005 79.8604 86.0005H59.8604C58.7492 86.0005 54.8604 84.9005 54.8604 80.5005C54.8604 76.1005 58.7492 75.0005 59.8604 75.0005Z" fill="#E69126"/>
<path d="M79.8604 69.2192L92.8574 57.2613C94.0127 55.8377 96.3232 51.624 96.3232 46.1575C96.3232 40.691 99.7891 29.0747 101.522 23.9499C102.1 21.3875 102.321 16.9326 98.9226 16.2627C94.5901 15.4086 91.1243 27.3656 89.3908 33.3454" stroke="#E69126" stroke-width="5"/>
<path d="M78.5166 56.0824L88.4045 46.5141C89.5031 45.3543 91.0412 42.3388 88.4045 39.5553C85.7677 36.7718 82.9108 38.9754 81.812 40.4252L66.9803 55.2127C65.607 56.3725 62.8604 59.388 62.8604 62.1715C62.8604 64.955 62.8604 72.0298 62.8604 75.2192" stroke="#E69126" stroke-width="5"/>
<path d="M65.5666 0.242721C58.1088 -1.00024 53.6549 2.83222 52.3601 4.90382C48.6313 1.1749 44.0738 0.242706 42.2611 0.242721C37.3411 -0.275164 27.501 1.64109 27.501 13.4492C27.501 25.2573 44.0738 36.4957 52.3601 40.6389C66.3434 35.201 77.2193 21.9945 77.2193 13.4492C77.2193 7.23441 73.0243 1.48568 65.5666 0.242721Z" fill="#E69126"/>
</svg>
