<svg width="40" height="37" viewBox="0 0 40 37" fill="none" xmlns="http://www.w3.org/2000/svg">
<path d="M4.72727 13.4545H0C0 0.363464 8.36364 -8.34573e-05 12 0C15.6364 8.34649e-05 18.7879 3.39394 20 5.09091C22.0364 1.30909 26.9091 0.121212 29.0909 0C37.8182 0 40 7.75758 40 11.6364C40 22.5455 25.0909 33.8182 22.5455 36C20.5091 37.7455 18.303 36.7273 17.4545 36C6.54545 27.2727 2.18182 20.3636 0.727273 16.7273H4.72727L6.54545 19.2727C8 21.3091 9.33333 20.1212 9.81818 19.2727L13.0909 13.0909L16.7273 24C17.6 26.6182 19.0303 25.0909 19.6364 24L23.2727 16.7273H27.2727C27.2727 17.4545 28.7273 18.5455 30.1818 18.5455C31.6364 18.5455 33.4545 17.4545 33.4545 15.2727C33.4545 13.0909 32 11.6364 30.1818 11.6364C28.7273 11.6364 27.6364 12.8484 27.2727 13.4545H23.2727C20.9455 13.4544 19.1515 16.8484 18.5455 18.5455C17.5758 15.7575 15.4182 9.67264 14.5455 7.63628C13.6727 5.59992 12.4848 6.78779 12 7.63628L7.63636 15.2726L4.72727 13.4545Z" fill="#F7971D"/>
</svg>
