<svg width="140" height="140" viewBox="0 0 140 140" fill="none" xmlns="http://www.w3.org/2000/svg">
<path d="M68.0905 53.7263L53.8984 67.9184C53.1237 68.693 53.1164 69.9467 53.882 70.7303L68.0742 85.2564C68.8556 86.0562 70.141 86.06 70.9271 85.2648L85.2862 70.7387C86.0628 69.9531 86.0554 68.6867 85.2698 67.9102L70.9106 53.718C70.1282 52.9448 68.8683 52.9485 68.0905 53.7263Z" stroke="#F7971E" stroke-width="4"/>
<path d="M25.0504 91.3847L69.2436 19.907C69.6349 19.2741 70.5556 19.275 70.9457 19.9087L114.947 91.3864C115.357 92.0526 114.878 92.9106 114.095 92.9106H25.9009C25.1177 92.9106 24.6385 92.0509 25.0504 91.3847Z" stroke="#F7971E" stroke-width="4"/>
<path d="M31.5427 120.331C44.7376 130.148 61.2228 134.47 77.5368 132.391C93.8509 130.311 108.725 121.991 119.035 109.178C129.345 96.3655 134.29 80.0562 132.831 63.675C131.371 47.2938 123.622 32.1152 111.21 21.3262C98.797 10.5373 82.687 4.9773 66.2622 5.81382C49.8375 6.65035 34.3757 13.8183 23.1236 25.8125C11.8714 37.8067 5.70422 53.6942 5.91695 70.1388C6.12967 86.5835 12.7058 102.306 24.2644 114.005" stroke="#F7971E" stroke-width="4"/>
<path d="M48.4562 23.1229C36.3387 28.688 26.8488 38.7317 21.9792 51.1449C17.1095 63.5582 17.239 77.3754 22.3402 89.6953C27.4415 102.015 37.1179 111.879 49.3374 117.216C61.557 122.554 75.3691 122.948 87.8737 118.318C100.378 113.688 110.602 104.393 116.399 92.3848C122.196 80.3765 123.115 66.5893 118.963 53.918C114.81 41.2468 105.91 30.6773 94.1302 24.4289C82.3505 18.1805 68.6081 16.7394 55.7884 20.408" stroke="#F7971E" stroke-width="4"/>
<path d="M86.4923 92.9107L114.741 47.248C115.153 46.5818 114.674 45.7219 113.891 45.7219H26.462C25.6872 45.7219 25.2067 46.5651 25.6017 47.2317L68.6588 119.891C69.0408 120.535 69.9699 120.546 70.3671 119.911L82.4933 100.509" stroke="#F7971E" stroke-width="4"/>
<circle cx="69.4961" cy="69.5162" r="3.99857" stroke="#F7971E" stroke-width="4"/>
</svg>
