<svg width="99" height="86" viewBox="0 0 99 86" fill="none" xmlns="http://www.w3.org/2000/svg">
<path d="M49.596 14.7264C53.8215 7.00563 69.683 -5.88422 86.2606 5.50071C110.493 22.143 90.3562 48.685 86.2606 53.5923C82.1651 58.4996 56.6169 84.8027 49.596 84.999M49.596 14.7264C47.0603 8.44528 30.678 -5.8839 13.3213 4.91177C-13.2777 21.456 11.1759 51.0405 13.1262 53.5923C15.0764 56.1441 42.5751 85.1953 49.596 84.999M49.596 14.7264V24.1485C49.5958 24.8682 50.0635 26.0329 51.9358 24.9336C54.2761 23.5596 64.2264 22.9728 64.0273 32.589C63.8323 42.0111 53.496 40.8333 51.9358 39.4593C50.6904 38.3625 49.596 39.4593 49.596 41.0296C49.596 42.2859 49.596 46.5258 49.596 48.4887C49.5955 49.8627 49.274 50.9124 47.4502 49.4702C44.7199 47.3109 34.7927 48.0961 34.9686 57.1255C35.1177 64.7809 44.7199 66.5476 47.4502 64.1921C49.1255 62.7468 49.596 64.3884 49.596 65.7624C49.596 66.8616 49.596 79.0448 49.596 84.999" stroke="#E69126" stroke-width="2"/>
<path d="M83.356 24.8051C83.8396 23.7906 84.1361 22.5659 85.565 22.3901C85.8775 22.3517 86.0506 21.9859 85.9869 21.6322C85.9153 21.2422 85.6605 21.0361 85.2605 21.0057C84.3968 20.939 83.8436 21.4645 83.3003 22.0283C82.4088 22.958 82.158 24.2393 81.5391 25.3164C80.4645 27.1858 78.4903 27.1838 77.4236 25.3084C77.2167 24.9446 77.0455 24.5566 76.8744 24.1706C76.5042 23.3339 76.1102 22.5154 75.4754 21.8363C74.9918 21.317 74.3987 21.0704 73.7161 21.0441C73.3201 21.03 73.0554 21.2462 73.0077 21.6646C72.9679 22.0122 73.0793 22.382 73.4216 22.4204C74.8624 22.5821 75.1331 23.825 75.6107 24.8354C76.142 25.9571 76.6833 27.0444 77.7858 27.7113C75.0694 29.7181 74.2733 31.4824 75.0415 33.7741C75.738 35.8497 77.6027 37.1168 79.7799 36.9915C81.8356 36.8743 83.5053 35.4576 84.0267 33.3881C84.5779 31.1954 83.5948 29.2209 81.1272 27.7497C82.2933 27.0241 82.8207 25.9247 83.356 24.8051ZM79.4754 35.6071C77.7261 35.6051 76.2236 34.0854 76.2057 32.3009C76.1878 30.4658 77.7261 28.9117 79.5251 28.9501C81.3102 28.9865 82.7192 30.4638 82.7192 32.3029C82.7212 34.1035 81.2426 35.6092 79.4754 35.6071Z" fill="#E69126"/>
<path d="M18.9781 28.3254C18.2493 28.2443 18.0131 28.6625 18.0004 29.2632C17.9877 29.8486 18.2899 30.1959 18.9121 30.1959C19.679 30.1959 20.4536 30.2491 21.2154 30.1832C22.0179 30.1147 22.3252 30.353 22.1805 31.1843C21.8021 33.3767 21.1291 35.4246 19.453 37.0061C18.94 37.4902 18.4981 38.03 19.0924 38.6662C19.7044 39.3201 20.2631 38.869 20.7583 38.3823C22.762 36.4079 23.6762 33.9368 24.0394 31.2173C24.0851 30.8852 23.9607 30.3353 24.2857 30.282C25.0324 30.1578 25.8349 30.1147 26.5688 30.2643C27.0488 30.3631 26.9116 31.0398 26.97 31.4656C27.3205 34.0813 28.288 36.4054 30.1267 38.3342C30.5965 38.8284 31.1653 39.2998 31.818 38.76C32.5773 38.1314 31.9221 37.5434 31.5133 37.11C29.8702 35.3663 29.1032 33.2829 28.7756 30.9511C28.6741 30.2339 28.8798 30.1806 29.441 30.1959C30.246 30.2187 31.0536 30.1882 31.8612 30.1984C32.4681 30.2085 32.971 30.0387 32.9989 29.3569C33.0268 28.6346 32.5265 28.3533 31.8739 28.3381C31.0688 28.3178 30.2587 28.2975 29.4537 28.3457C28.7528 28.3862 28.669 28.1505 28.7553 27.4865C29.0601 25.1775 29.6518 23.0587 31.7317 21.6571C32.2142 21.3327 32.2904 20.8308 31.8993 20.3619C31.5107 19.9007 31.0333 19.8905 30.5838 20.2732C30.0886 20.694 29.5857 21.1172 29.1591 21.6039C27.6811 23.2842 27.1199 25.3347 26.8456 27.4966C26.81 27.7754 26.9675 28.2443 26.584 28.2874C25.8653 28.371 25.0933 28.447 24.4127 28.2671C23.8769 28.1252 24.1029 27.4104 24.0394 26.9491C23.6762 24.3209 22.7544 21.9942 20.545 20.3417C20.0219 19.9513 19.4708 19.8145 19.0187 20.3746C18.5489 20.955 18.8994 21.5861 19.354 21.8624C20.9996 22.8711 21.6091 24.4552 21.9875 26.1913C22.4547 28.3355 22.4395 28.3381 20.2479 28.3381C19.8238 28.333 19.3971 28.371 18.9781 28.3254Z" fill="#E69126"/>
</svg>
