<svg width="44" height="33" viewBox="0 0 44 33" fill="none" xmlns="http://www.w3.org/2000/svg">
<path d="M25.1911 25.5144C26.9784 23.0682 27.8425 20.0686 27.6304 17.0464C27.4183 14.0243 26.1437 11.1748 24.0323 9.00221C21.9209 6.82967 19.1088 5.4743 16.094 5.17609C13.0792 4.87787 10.056 5.65604 7.5599 7.37282C5.06375 9.0896 3.25558 11.6342 2.45551 14.5562C1.65545 17.4782 1.91511 20.589 3.18852 23.338C4.46193 26.0869 6.66694 28.2965 9.41317 29.5757C12.1594 30.8549 15.2697 31.1212 18.1933 30.3273" stroke="#F7971D" stroke-width="3" stroke-linecap="square"/>
<path d="M18.7198 10.1939C16.8897 12.6082 15.9729 15.5922 16.1317 18.6176C16.2905 21.643 17.5147 24.5146 19.5875 26.724C21.6603 28.9334 24.4481 30.3381 27.4572 30.6894C30.4663 31.0407 33.5026 30.3159 36.0286 28.6433C38.5546 26.9708 40.4074 24.4584 41.2588 21.551C42.1102 18.6435 41.9054 15.5286 40.6806 12.7577C39.4558 9.98678 37.2901 7.7386 34.5668 6.41122C31.8436 5.08383 28.7385 4.76285 25.8013 5.50512" stroke="#F7971D" stroke-width="3" stroke-linecap="square"/>
<circle cx="11.6232" cy="3.83078" r="2.70774" fill="#F7971D" stroke="white"/>
</svg>
