<svg width="93" height="87" viewBox="0 0 93 87" fill="none" xmlns="http://www.w3.org/2000/svg">
<path d="M39.3689 75.8203H20.7246C19.1709 75.8203 16.0635 76.7525 16.0635 80.4814C16.0635 84.2103 19.1709 85.1425 20.7246 85.1425H39.3689C40.4047 85.1425 44.03 84.2103 44.03 80.4814C44.03 76.7525 40.4047 75.8203 39.3689 75.8203Z" stroke="#E69126" stroke-width="2"/>
<path d="M20.7246 70.3833L9.07181 59.5074C8.03601 58.2127 5.96442 54.3802 5.96442 49.4084C5.96442 44.4366 2.85702 33.8714 1.30332 29.2103C0.785423 26.8798 0.586806 22.828 3.63387 22.2187C7.51825 21.4419 10.6256 32.3169 12.1798 37.7557" stroke="#E69126" stroke-width="2"/>
<path d="M22.3261 58.5019L13.2223 49.6625C12.2108 48.591 10.7946 45.8053 13.2223 43.2338C15.65 40.6623 18.2803 42.6981 19.292 44.0374L32.9477 57.6984C34.2122 58.7699 36.741 61.5556 36.741 64.1271C36.741 66.6986 36.741 73.2344 36.741 76.1809" stroke="#E69126" stroke-width="2"/>
<path d="M53.3518 75.8589H71.9961C73.5498 75.8589 76.6572 76.7911 76.6572 80.52C76.6572 84.2489 73.5498 85.1811 71.9961 85.1811H53.3518C52.316 85.1811 48.6907 84.2489 48.6907 80.52C48.6907 76.7911 52.316 75.8589 53.3518 75.8589Z" stroke="#E69126" stroke-width="2"/>
<path d="M71.9962 70.4219L83.6489 59.546C84.6847 58.2513 86.7563 54.4188 86.7563 49.447C86.7563 44.4752 89.8637 33.91 91.4174 29.2489C91.9353 26.9184 92.1339 22.8666 89.0868 22.2573C85.2025 21.4805 82.0951 32.3555 80.5409 37.7943" stroke="#E69126" stroke-width="2"/>
<path d="M70.3946 58.5405L79.4984 49.701C80.51 48.6296 81.9261 45.8438 79.4984 43.2724C77.0707 40.7009 74.4404 42.7367 73.4287 44.076L59.773 57.737C58.5085 58.8085 55.9797 61.5942 55.9797 64.1657C55.9797 66.7372 55.9797 73.273 55.9797 76.2194" stroke="#E69126" stroke-width="2"/>
<path d="M59.5666 1.24272C52.1088 -0.000237346 47.6549 3.83222 46.3601 5.90382C42.6313 2.1749 38.0738 1.24271 36.2611 1.24272C31.3411 0.724836 21.501 2.64109 21.501 14.4492C21.501 26.2573 38.0738 37.4957 46.3601 41.6389C60.3434 36.201 71.2193 22.9945 71.2193 14.4492C71.2193 8.23441 67.0243 2.48568 59.5666 1.24272Z" stroke="#E69126" stroke-width="2"/>
</svg>
