<svg width="61" height="46" viewBox="0 0 61 46" fill="none" xmlns="http://www.w3.org/2000/svg">
<path d="M34.828 36.2357C37.358 32.7731 38.5812 28.5269 38.281 24.249C37.9807 19.9711 36.1765 15.9374 33.1877 12.862C30.1989 9.78669 26.2183 7.86811 21.9506 7.44597C17.683 7.02383 13.4037 8.12536 9.87028 10.5555C6.33687 12.9857 3.77732 16.5878 2.6448 20.724C1.51228 24.8602 1.87984 29.2637 3.6824 33.1549C5.48497 37.0461 8.60626 40.174 12.4937 41.9848C16.3811 43.7955 20.7838 44.1724 24.9224 43.0486" stroke="#F7971D" stroke-width="4" stroke-linecap="square"/>
<path d="M25.6683 14.5481C23.0777 17.9657 21.7799 22.1896 22.0047 26.4722C22.2295 30.7547 23.9624 34.8196 26.8966 37.9471C29.8307 41.0746 33.7769 43.063 38.0364 43.5603C42.2959 44.0576 46.594 43.0316 50.1697 40.6641C53.7454 38.2965 56.368 34.7401 57.5732 30.6245C58.7784 26.5089 58.4885 22.0996 56.7548 18.1772C55.0211 14.2549 51.9554 11.0725 48.1005 9.1935C44.2456 7.31452 39.8502 6.86017 35.6924 7.91088" stroke="#F7971D" stroke-width="4" stroke-linecap="square"/>
<circle cx="13" cy="5" r="4.5" fill="#F7971D" stroke="white"/>
</svg>
