<svg width="89" height="96" viewBox="0 0 89 96" fill="none" xmlns="http://www.w3.org/2000/svg">
<path d="M22.1541 3.37061L22.1541 18.778" stroke="#F7971D" stroke-width="5" stroke-linecap="round"/>
<path d="M67.1912 3.37061L67.1912 18.778" stroke="#F7971D" stroke-width="5" stroke-linecap="round"/>
<path d="M4.37634 34.1855L84.9689 34.1855" stroke="#F7971D" stroke-width="5" stroke-linecap="round"/>
<rect x="3.3208" y="10.6113" width="82.7037" height="82.7037" rx="3.5" stroke="#F7971D" stroke-width="5"/>
<path d="M25.9829 55.9248C26.1369 53.9008 26.9179 52.3168 28.3259 51.1728C29.7339 50.0288 31.5599 49.4568 33.8039 49.4568C35.2999 49.4568 36.5869 49.7318 37.6649 50.2818C38.7649 50.8098 39.5899 51.5358 40.1399 52.4598C40.7119 53.3838 40.9979 54.4288 40.9979 55.5948C40.9979 56.9588 40.6019 58.1358 39.8099 59.1258C39.0399 60.1158 38.0279 60.7538 36.7739 61.0398V61.2048C38.2039 61.5568 39.3369 62.2498 40.1729 63.2838C41.0089 64.3178 41.4269 65.6708 41.4269 67.3428C41.4269 68.5968 41.1409 69.7298 40.5689 70.7418C39.9969 71.7318 39.1389 72.5128 37.9949 73.0848C36.8509 73.6568 35.4759 73.9428 33.8699 73.9428C31.5379 73.9428 29.6239 73.3378 28.1279 72.1278C26.6319 70.8958 25.7959 69.1578 25.6199 66.9138H28.5239C28.6779 68.2338 29.2169 69.3118 30.1409 70.1478C31.0649 70.9838 32.2969 71.4018 33.8369 71.4018C35.3769 71.4018 36.5429 71.0058 37.3349 70.2138C38.1489 69.3998 38.5559 68.3548 38.5559 67.0788C38.5559 65.4288 38.0059 64.2408 36.9059 63.5148C35.8059 62.7888 34.1449 62.4258 31.9229 62.4258H31.1639V59.9178H31.9559C33.9799 59.8958 35.5089 59.5658 36.5429 58.9278C37.5769 58.2678 38.0939 57.2558 38.0939 55.8918C38.0939 54.7258 37.7089 53.7908 36.9389 53.0868C36.1909 52.3828 35.1129 52.0308 33.7049 52.0308C32.3409 52.0308 31.2409 52.3828 30.4049 53.0868C29.5689 53.7908 29.0739 54.7368 28.9199 55.9248H25.9829ZM45.4815 61.6008C45.4815 57.8168 46.0975 54.8688 47.3295 52.7568C48.5615 50.6228 50.7175 49.5558 53.7975 49.5558C56.8555 49.5558 59.0005 50.6228 60.2325 52.7568C61.4645 54.8688 62.0805 57.8168 62.0805 61.6008C62.0805 65.4508 61.4645 68.4428 60.2325 70.5768C59.0005 72.7108 56.8555 73.7778 53.7975 73.7778C50.7175 73.7778 48.5615 72.7108 47.3295 70.5768C46.0975 68.4428 45.4815 65.4508 45.4815 61.6008ZM59.1105 61.6008C59.1105 59.6868 58.9785 58.0698 58.7145 56.7498C58.4725 55.4078 57.9555 54.3298 57.1635 53.5158C56.3935 52.7018 55.2715 52.2948 53.7975 52.2948C52.3015 52.2948 51.1575 52.7018 50.3655 53.5158C49.5955 54.3298 49.0785 55.4078 48.8145 56.7498C48.5725 58.0698 48.4515 59.6868 48.4515 61.6008C48.4515 63.5808 48.5725 65.2418 48.8145 66.5838C49.0785 67.9258 49.5955 69.0038 50.3655 69.8178C51.1575 70.6318 52.3015 71.0388 53.7975 71.0388C55.2715 71.0388 56.3935 70.6318 57.1635 69.8178C57.9555 69.0038 58.4725 67.9258 58.7145 66.5838C58.9785 65.2418 59.1105 63.5808 59.1105 61.6008Z" fill="#F7971D"/>
</svg>
