<svg width="27" height="27" viewBox="0 0 27 27" fill="none" xmlns="http://www.w3.org/2000/svg">
<path d="M4.09961 0.350586H8.17285C9.05736 0.337784 9.9177 0.642166 10.5986 1.20898C11.1944 1.70502 11.6189 2.37352 11.8164 3.11914L11.8867 3.44336C11.9284 3.76057 11.9834 4.07883 12.0527 4.38477C12.1926 5.00305 12.3738 5.61164 12.5938 6.20605V6.20703C12.793 6.75634 12.7824 7.36023 12.5645 7.90234C12.349 8.43818 11.9459 8.87571 11.4316 9.13379L10.1074 9.55176L9.69922 9.68066L9.90723 10.0557C10.2635 10.698 10.6889 11.5327 11.1416 12.3115C11.5977 13.0962 12.1096 13.8762 12.6738 14.4463L12.6758 14.4482C13.786 15.5536 15.8657 16.8151 17.1826 17.5498L17.623 17.7949L17.6992 17.2969L17.9473 15.6689C18.2063 15.1648 18.6371 14.7699 19.1621 14.5576C19.7007 14.3398 20.3007 14.3284 20.8467 14.5264V14.5273C21.4398 14.7525 22.0486 14.9333 22.668 15.0703V15.0713C22.9178 15.1282 23.2729 15.2326 23.6104 15.2412C24.4493 15.3966 25.21 15.8373 25.7637 16.4893C26.2516 17.0639 26.5531 17.7716 26.6309 18.5176L26.6504 18.8398V22.9111C26.6528 23.4384 26.5435 23.9606 26.3301 24.4424C26.1167 24.9239 25.8035 25.3548 25.4121 25.7061C24.7303 26.3152 23.8483 26.6517 22.9355 26.6504H22.4492C16.8535 25.9542 11.6481 23.4098 7.65332 19.418C3.6551 15.4227 1.09778 10.2055 0.385742 4.58984L0.384766 4.58594C0.311834 4.05558 0.354051 3.51559 0.507812 3.00293C0.661611 2.49023 0.923853 2.0171 1.27637 1.61523C1.62892 1.21333 2.06357 0.892 2.55078 0.673828C3.03791 0.455739 3.56624 0.345563 4.09961 0.350586Z" fill="#F7971D" stroke="white" stroke-width="0.7"/>
</svg>
