<svg width="158" height="153" viewBox="0 0 158 153" fill="none" xmlns="http://www.w3.org/2000/svg">
<path d="M95.3333 88C104.782 88.0005 113.866 91.6486 120.69 98.1835C127.515 104.718 131.553 113.636 131.963 123.075L132 124.667V132C132.001 135.7 130.604 139.264 128.088 141.977C125.572 144.691 122.123 146.352 118.433 146.63L117.333 146.667H14.6667C10.9664 146.668 7.40251 145.27 4.68931 142.754C1.97612 140.238 0.314184 136.79 0.0366675 133.1L0 132V124.667C0.000545912 115.218 3.64864 106.134 10.1835 99.3096C16.7184 92.4851 25.6355 88.4467 35.0753 88.0367L36.6667 88H95.3333ZM66 0C75.7246 0 85.0509 3.86308 91.9273 10.7394C98.8036 17.6158 102.667 26.9421 102.667 36.6667C102.667 46.3913 98.8036 55.7176 91.9273 62.5939C85.0509 69.4703 75.7246 73.3333 66 73.3333C56.2754 73.3333 46.9491 69.4703 40.0728 62.5939C33.1964 55.7176 29.3333 46.3913 29.3333 36.6667C29.3333 26.9421 33.1964 17.6158 40.0728 10.7394C46.9491 3.86308 56.2754 0 66 0Z" fill="#F7971D"/>
<path d="M120.666 94C130.115 94.0005 139.199 97.6486 146.023 104.184C152.848 110.718 156.886 119.636 157.296 129.075L157.333 130.667V138C157.334 141.7 155.937 145.264 153.421 147.977C150.905 150.691 147.456 152.352 143.766 152.63L142.666 152.667H39.9997C36.2994 152.668 32.7355 151.27 30.0223 148.754C27.3091 146.238 25.6472 142.79 25.3697 139.1L25.333 138V130.667C25.3336 121.218 28.9816 112.134 35.5165 105.31C42.0514 98.4851 50.9685 94.4467 60.4083 94.0367L61.9997 94H120.666ZM91.333 6C101.058 6 110.384 9.86308 117.26 16.7394C124.137 23.6158 128 32.9421 128 42.6667C128 52.3913 124.137 61.7176 117.26 68.5939C110.384 75.4703 101.058 79.3333 91.333 79.3333C81.6084 79.3333 72.2821 75.4703 65.4058 68.5939C58.5294 61.7176 54.6663 52.3913 54.6663 42.6667C54.6663 32.9421 58.5294 23.6158 65.4058 16.7394C72.2821 9.86308 81.6084 6 91.333 6Z" fill="#F7971D"/>
<path d="M120.666 96.5C129.47 96.5005 137.935 99.9 144.294 105.989C150.647 112.073 154.409 120.372 154.797 129.159L154.833 130.667V138.001C154.834 141.07 153.675 144.027 151.588 146.277C149.506 148.523 146.653 149.899 143.601 150.134L142.612 150.167H39.999C36.9295 150.168 33.9734 149.008 31.7227 146.921C29.4807 144.842 28.1035 141.996 27.8652 138.948L27.833 137.946V130.667L27.8428 129.843C28.0483 121.336 31.4233 113.2 37.3223 107.039C43.4059 100.686 51.7051 96.9232 60.4922 96.5352L62.0156 96.5H120.666ZM91.333 8.5C100.394 8.5 109.085 12.0995 115.492 18.5068C121.9 24.9143 125.5 33.6054 125.5 42.667C125.5 51.7284 121.9 60.4188 115.492 66.8262C109.085 73.2336 100.394 76.833 91.333 76.833C82.2715 76.833 73.5813 73.2336 67.1738 66.8262C60.7664 60.4188 57.1661 51.7284 57.166 42.667C57.166 33.6054 60.7663 24.9143 67.1738 18.5068C73.5813 12.0995 82.2716 8.5 91.333 8.5Z" stroke="white" stroke-opacity="0.75" stroke-width="5" stroke-linejoin="bevel"/>
</svg>
