<svg width="64" height="76" viewBox="0 0 64 76" fill="none" xmlns="http://www.w3.org/2000/svg">
<path d="M14.8607 62.7369L13.9319 60.8421L17.6471 57.0527C16.161 56.2948 14.5511 54.8421 13.9319 54.2106C8.73065 53.4527 2.47678 58.3158 0 60.8421C3.71517 61.4737 10.4835 62.5275 16.7183 67.4737C25.0774 74.1053 28.7926 76 31.5789 76C33.4365 76 36.2229 75.6842 43.6532 69.3684C52.5697 61.7895 60.3715 60.5263 63.1579 60.8421C60.1858 56.2948 53.2508 53.8948 50.1548 53.2632C47.1827 55.5369 45.2012 56.7369 44.582 57.0527L49.226 60.8421L48.2972 62.7369H46.4396L41.7957 58C38.0805 60.2737 34.0557 60.8421 32.5077 60.8421V66.5263L31.5789 67.4737L29.7214 66.5263V60.8421C26.7492 60.8421 22.291 59.579 20.4334 58.9474L15.7895 62.7369H14.8607Z" fill="#E69126"/>
<ellipse cx="31.5795" cy="28.5263" rx="27.7895" ry="26.5263" stroke="#E69126" stroke-width="4"/>
<path d="M53.0381 28.5264C53.341 35.2632 49.2208 48.7369 30.3164 48.7369" stroke="#E69126" stroke-width="2"/>
<path d="M24.8175 9.58571C21.5434 9.74675 17.6145 12.8143 15.6336 14.7301C15.3923 14.9635 15.4602 15.3597 15.7594 15.512L21.099 18.2303C21.3157 18.3406 21.579 18.2784 21.7364 18.093C23.1331 16.4475 25.7569 14.7454 27.3055 13.8657C27.5631 13.7194 27.646 13.3847 27.4805 13.139L25.2317 9.7998C25.1387 9.66183 24.9836 9.57754 24.8175 9.58571Z" stroke="#E69126" stroke-width="2"/>
</svg>
