<svg width="137" height="137" viewBox="0 0 137 137" fill="none" xmlns="http://www.w3.org/2000/svg">
<g filter="url(#filter0_d_908_264)">
<circle cx="68.5" cy="68.5" r="52.5" fill="black"/>
</g>
<g clip-path="url(#paint0_diamond_908_264_clip_path)" data-figma-skip-parse="true"><g transform="matrix(0.0005 0.0555 -0.0555 0.0005 68.5 68.5)"><rect x="0" y="0" width="1099.82" height="1099.82" fill="url(#paint0_diamond_908_264)" opacity="1" shape-rendering="crispEdges"/><rect x="0" y="0" width="1099.82" height="1099.82" transform="scale(1 -1)" fill="url(#paint0_diamond_908_264)" opacity="1" shape-rendering="crispEdges"/><rect x="0" y="0" width="1099.82" height="1099.82" transform="scale(-1 1)" fill="url(#paint0_diamond_908_264)" opacity="1" shape-rendering="crispEdges"/><rect x="0" y="0" width="1099.82" height="1099.82" transform="scale(-1)" fill="url(#paint0_diamond_908_264)" opacity="1" shape-rendering="crispEdges"/></g></g><path d="M121 68.5C121 64.0036 120.433 59.6281 119.362 55.446L103.862 59.4142C104.604 62.3105 105 65.3531 105 68.5H121ZM119.078 54.3807C116.666 45.7284 112.102 37.9876 106.009 31.7673L94.5786 42.9627C98.8274 47.3007 101.995 52.683 103.665 58.6757L119.078 54.3807ZM105.233 30.9905C99.0124 24.8984 91.2716 20.3336 82.6193 17.9225L78.3243 33.3353C84.317 35.0052 89.6993 38.1726 94.0373 42.4214L105.233 30.9905ZM81.554 17.6378C77.3719 16.5671 72.9964 16 68.5 16V32C71.6469 32 74.6896 32.3964 77.5858 33.1379L81.554 17.6378ZM68.5 16C64.0036 16 59.6281 16.5671 55.446 17.6377L59.4142 33.1379C62.3105 32.3964 65.3531 32 68.5 32V16ZM54.3807 17.9225C45.7284 20.3336 37.9876 24.8984 31.7673 30.9905L42.9627 42.4214C47.3007 38.1726 52.683 35.0052 58.6757 33.3353L54.3807 17.9225ZM30.9905 31.7673C24.8984 37.9876 20.3336 45.7284 17.9225 54.3807L33.3353 58.6757C35.0052 52.683 38.1726 47.3007 42.4214 42.9627L30.9905 31.7673ZM17.6378 55.446C16.5671 59.6281 16 64.0036 16 68.5H32C32 65.3531 32.3964 62.3104 33.1379 59.4142L17.6378 55.446ZM16 68.5C16 72.9964 16.5671 77.3719 17.6377 81.554L33.1379 77.5858C32.3964 74.6895 32 71.6469 32 68.5H16ZM17.9225 82.6193C20.3336 91.2716 24.8984 99.0124 30.9905 105.233L42.4214 94.0373C38.1726 89.6992 35.0052 84.317 33.3353 78.3243L17.9225 82.6193ZM31.7673 106.009C37.9876 112.102 45.7284 116.666 54.3807 119.077L58.6757 103.665C52.683 101.995 47.3007 98.8274 42.9627 94.5786L31.7673 106.009ZM55.446 119.362C59.6281 120.433 64.0036 121 68.5 121V105C65.3531 105 62.3104 104.604 59.4142 103.862L55.446 119.362ZM68.5 121C72.9964 121 77.3719 120.433 81.554 119.362L77.5858 103.862C74.6895 104.604 71.6469 105 68.5 105V121ZM82.6193 119.078C91.2716 116.666 99.0124 112.102 105.233 106.009L94.0373 94.5786C89.6992 98.8274 84.317 101.995 78.3243 103.665L82.6193 119.078ZM106.009 105.233C112.102 99.0124 116.666 91.2716 119.077 82.6193L103.665 78.3243C101.995 84.317 98.8274 89.6993 94.5786 94.0373L106.009 105.233ZM119.362 81.554C120.433 77.3719 121 72.9964 121 68.5H105C105 71.6469 104.604 74.6896 103.862 77.5858L119.362 81.554Z" data-figma-gradient-fill="{&#34;type&#34;:&#34;GRADIENT_DIAMOND&#34;,&#34;stops&#34;:[{&#34;color&#34;:{&#34;r&#34;:0.94901961088180542,&#34;g&#34;:0.71764707565307617,&#34;b&#34;:0.019607843831181526,&#34;a&#34;:1.0},&#34;position&#34;:0.0},{&#34;color&#34;:{&#34;r&#34;:0.96862745285034180,&#34;g&#34;:0.59215688705444336,&#34;b&#34;:0.11372549086809158,&#34;a&#34;:1.0},&#34;position&#34;:1.0}],&#34;stopsVar&#34;:[{&#34;color&#34;:{&#34;r&#34;:0.94901961088180542,&#34;g&#34;:0.71764707565307617,&#34;b&#34;:0.019607843831181526,&#34;a&#34;:1.0},&#34;position&#34;:0.0},{&#34;color&#34;:{&#34;r&#34;:0.96862745285034180,&#34;g&#34;:0.59215688705444336,&#34;b&#34;:0.11372549086809158,&#34;a&#34;:1.0},&#34;position&#34;:1.0}],&#34;transform&#34;:{&#34;m00&#34;:1.0000001192092896,&#34;m01&#34;:-111.0,&#34;m02&#34;:123.50,&#34;m10&#34;:111.0,&#34;m11&#34;:1.0000001192092896,&#34;m12&#34;:12.50},&#34;opacity&#34;:1.0,&#34;blendMode&#34;:&#34;NORMAL&#34;,&#34;visible&#34;:true}"/>
<g clip-path="url(#paint1_diamond_908_264_clip_path)" data-figma-skip-parse="true"><g transform="matrix(0.000514493 0.0545362 -0.0545362 0.000514493 68.5 68.5)"><rect x="0" y="0" width="675.534" height="675.534" fill="url(#paint1_diamond_908_264)" opacity="1" shape-rendering="crispEdges"/><rect x="0" y="0" width="675.534" height="675.534" transform="scale(1 -1)" fill="url(#paint1_diamond_908_264)" opacity="1" shape-rendering="crispEdges"/><rect x="0" y="0" width="675.534" height="675.534" transform="scale(-1 1)" fill="url(#paint1_diamond_908_264)" opacity="1" shape-rendering="crispEdges"/><rect x="0" y="0" width="675.534" height="675.534" transform="scale(-1)" fill="url(#paint1_diamond_908_264)" opacity="1" shape-rendering="crispEdges"/></g></g><circle cx="68.5" cy="68.5" r="35.5" data-figma-gradient-fill="{&#34;type&#34;:&#34;GRADIENT_DIAMOND&#34;,&#34;stops&#34;:[{&#34;color&#34;:{&#34;r&#34;:0.94901961088180542,&#34;g&#34;:0.71764707565307617,&#34;b&#34;:0.019607843831181526,&#34;a&#34;:1.0},&#34;position&#34;:0.0},{&#34;color&#34;:{&#34;r&#34;:0.96862745285034180,&#34;g&#34;:0.59215688705444336,&#34;b&#34;:0.11372549086809158,&#34;a&#34;:1.0},&#34;position&#34;:1.0}],&#34;stopsVar&#34;:[{&#34;color&#34;:{&#34;r&#34;:0.94901961088180542,&#34;g&#34;:0.71764707565307617,&#34;b&#34;:0.019607843831181526,&#34;a&#34;:1.0},&#34;position&#34;:0.0},{&#34;color&#34;:{&#34;r&#34;:0.96862745285034180,&#34;g&#34;:0.59215688705444336,&#34;b&#34;:0.11372549086809158,&#34;a&#34;:1.0},&#34;position&#34;:1.0}],&#34;transform&#34;:{&#34;m00&#34;:1.0289855003356934,&#34;m01&#34;:-109.07246398925781,&#34;m02&#34;:122.52173614501953,&#34;m10&#34;:109.07246398925781,&#34;m11&#34;:1.0289855003356934,&#34;m12&#34;:13.449275970458984},&#34;opacity&#34;:1.0,&#34;blendMode&#34;:&#34;NORMAL&#34;,&#34;visible&#34;:true}"/>
<path d="M68.4996 23.4888C68.6406 22.9145 68.8214 22.3746 69.1423 21.8902C69.3571 21.5661 69.6195 21.2932 69.9871 21.1346C70.7784 20.792 71.5807 21.122 71.8703 21.9145C72.0885 22.5115 72.0112 23.1001 71.7887 23.676C71.7004 23.9036 71.5272 24.0614 71.27 23.9556C71.017 23.8515 70.9975 23.6399 71.1078 23.404C71.2598 23.0774 71.3303 22.734 71.2573 22.3763C71.1197 21.7063 70.5577 21.5157 70.0364 21.9641C69.6254 22.3176 69.448 22.797 69.33 23.3041C69.0124 24.6676 68.9403 26.0605 68.8299 27.4484C68.8095 27.7019 68.8248 27.9966 68.475 28C68.104 28.0033 68.0955 27.7086 68.0921 27.4299C68.0726 25.9623 68.0412 24.4955 67.5555 23.0833C67.4205 22.6912 67.2558 22.3184 66.9544 22.0195C66.7175 21.7844 66.434 21.6627 66.1071 21.7651C65.7751 21.8692 65.7072 22.1647 65.6698 22.467C65.6291 22.7961 65.6885 23.1093 65.8048 23.4149C65.8838 23.6231 65.9169 23.8339 65.6749 23.9472C65.416 24.0681 65.2292 23.9237 65.1536 23.6937C65.0934 23.5123 64.7444 21.9364 65.3557 21.3932C65.8694 20.9364 66.7507 20.8961 67.2864 21.347C67.868 21.8365 68.1354 22.493 68.3536 23.184C68.3799 23.2671 68.4054 23.3511 68.4334 23.4334C68.4368 23.4451 68.4538 23.4519 68.4996 23.4888Z" fill="#010100"/>
<path d="M44.0798 31.7295C43.8238 31.8723 43.8348 32.0527 43.9576 32.2369C44.0772 32.4165 44.2495 32.4519 44.4534 32.3092C44.7047 32.1332 44.9698 31.9716 45.2055 31.7769C45.4539 31.5721 45.605 31.5735 45.7332 31.8576C46.0725 32.6061 46.2848 33.3785 46.0698 34.2404C46.004 34.5042 45.9733 34.7685 46.3024 34.8241C46.6411 34.881 46.7289 34.6167 46.7883 34.3562C47.0276 33.3007 46.805 32.3451 46.3493 31.4411C46.2941 31.3304 46.1371 31.1929 46.2324 31.1023C46.4508 30.8935 46.7046 30.6964 46.9767 30.5732C47.1548 30.4929 47.2529 30.7286 47.362 30.8437C48.0296 31.5526 48.8377 32.0321 49.8478 32.1923C50.1061 32.2337 50.3922 32.2454 50.4919 31.9328C50.6079 31.5689 50.269 31.5417 50.0434 31.5047C49.1366 31.3555 48.445 30.9027 47.8449 30.2741C47.6601 30.081 47.7162 30.0177 47.9033 29.8935C48.1719 29.7157 48.4301 29.5213 48.6969 29.339C48.8979 29.2028 49.0268 29.0362 48.8918 28.8241C48.7483 28.5997 48.525 28.6295 48.3079 28.7747C48.0398 28.9533 47.7701 29.133 47.5165 29.3322C47.2954 29.5053 47.2182 29.4534 47.1061 29.2332C46.7181 28.4664 46.4642 27.6912 46.8495 26.791C46.939 26.5824 46.858 26.4135 46.6307 26.3617C46.4059 26.3117 46.2474 26.4181 46.1809 26.6368C46.1076 26.8774 46.0323 27.1205 45.9953 27.3652C45.8661 28.2114 46.1155 28.959 46.4825 29.6744C46.5298 29.7667 46.6805 29.8721 46.5639 29.973C46.3461 30.1632 46.1092 30.3632 45.8482 30.4651C45.6426 30.5452 45.5656 30.2776 45.4474 30.153C44.773 29.4431 43.9792 28.9524 42.9061 28.9606C42.6522 28.9628 42.4427 29.048 42.413 29.3207C42.3817 29.6037 42.6299 29.7137 42.8372 29.6928C43.5896 29.6197 44.124 29.9579 44.6149 30.3951C45.2211 30.935 45.2166 30.9392 44.4985 31.442C44.3585 31.5378 44.2267 31.6472 44.0798 31.7295Z" fill="#010100"/>
<path d="M31.1241 42.6722C30.6333 42.7468 30.1427 42.8312 29.6523 42.91C29.4423 42.9434 29.4681 43.09 29.4782 43.2409C29.5083 43.7058 29.5012 44.178 29.567 44.6348C29.6186 44.9926 29.4937 45.0672 29.1815 45.1102C28.2329 45.2413 28.2336 45.2552 28.296 46.2536C28.3175 46.6022 28.4728 47.0428 28.3212 47.2767C28.1439 47.549 27.6685 47.4449 27.3252 47.5244C27.2698 47.5375 27.2126 47.5419 27.1571 47.555C27.0607 47.5791 27.0163 47.6375 27.0232 47.7452C27.0681 48.4829 27.1053 49.2214 27.156 49.9583C27.1711 50.1745 27.2591 50.3684 27.5144 50.3243C27.777 50.2782 27.8412 50.0617 27.8315 49.8253C27.8148 49.432 27.8094 49.036 27.7606 48.6489C27.7176 48.3053 27.7664 48.1452 28.1645 48.0928C29.0809 47.9735 29.0791 47.9446 29.0298 47.0147C29.0237 46.8988 29.0209 46.7817 29.0134 46.665C28.9666 45.9157 28.9669 45.9168 29.6989 45.7654C29.7958 45.7454 29.891 45.6946 29.9854 45.6945C30.2898 45.6936 30.3214 45.5234 30.2976 45.2642C30.2523 44.772 30.243 44.2747 30.1995 43.7824C30.1828 43.5915 30.2342 43.5233 30.4169 43.5024C30.6834 43.4729 30.9495 43.4219 31.215 43.3687C31.3949 43.3328 31.4785 43.1901 31.5005 43.0177C31.5181 42.8758 31.462 42.7642 31.3212 42.7023C31.2612 42.6917 31.1906 42.6621 31.1241 42.6722ZM30.2804 51.304C30.3128 51.0899 30.2921 50.8689 30.2842 50.6527C30.2707 50.2891 30.113 49.8463 30.2657 49.5831C30.4429 49.277 30.9328 49.3791 31.2862 49.3146C31.5059 49.2748 31.5733 49.2035 31.5519 48.9754C31.5063 48.4839 31.4944 47.9863 31.4539 47.4936C31.4363 47.2753 31.4516 47.1513 31.7183 47.1161C32.0653 47.0704 32.562 47.1444 32.7171 46.8834C32.8786 46.6123 32.7386 46.1529 32.7171 45.7773C32.6659 44.885 32.663 44.8853 33.5036 44.7154C33.5459 44.7069 33.5875 44.6962 33.6287 44.6881C33.8541 44.6426 34.001 44.5247 33.9761 44.2659C33.9498 43.9927 33.7538 43.9604 33.5461 43.9911C33.0823 44.0589 32.6216 44.1495 32.1582 44.2165C31.9574 44.2461 31.9425 44.3625 31.9538 44.5265C31.9863 44.9918 31.9873 45.4624 32.0486 45.9208C32.0982 46.291 31.9661 46.3878 31.6319 46.4316C30.706 46.5536 30.7114 46.5689 30.766 47.5142C30.7877 47.8879 30.9684 48.3603 30.7663 48.6098C30.5921 48.825 30.1093 48.7912 29.7615 48.8384C29.5346 48.8697 29.4871 48.9679 29.5021 49.1878C29.5489 49.8793 29.5812 50.5727 29.6041 51.267C29.6094 51.4269 29.6848 51.4986 29.8954 51.6119C30.0566 51.6914 30.2356 51.6011 30.2804 51.304Z" fill="#010100"/>
<path d="M26.3282 70.1874C25.1815 70.175 24.034 70.1728 22.8873 70.1669C22.2094 70.163 21.857 69.7809 21.8522 69.0413C21.8478 68.4074 22.1991 68.0396 22.853 68.0265C23.5042 68.0144 24.1554 68.0275 24.8065 68.0275C25.278 68.0277 25.7374 67.9605 26.1327 67.6667C26.2675 67.5663 26.375 67.5995 26.5172 67.6319C27.1953 67.7863 27.1404 68.3406 27.1444 68.8623C27.1461 69.0877 27.1808 69.2926 27.3974 69.3917C27.5972 69.4833 27.7559 69.3876 27.89 69.2321C28.1723 68.5694 27.9585 67.6101 27.4293 67.1656C27.4027 67.1439 27.2014 66.9935 27.0717 66.9611C26.8113 66.9039 26.6898 66.8127 26.7793 66.4848C26.876 66.129 26.899 65.7448 26.8491 65.3687C26.7707 64.7765 26.5004 64.3294 25.948 64.1166C25.3085 63.8707 24.6163 64.1052 24.2651 64.6731C23.9211 65.2298 24.0418 66.1149 24.5537 66.6463C24.7405 66.8407 24.9667 66.9941 25.269 67.2441C24.407 67.2403 23.6669 67.2306 22.9267 67.2349C21.5211 67.2428 20.7367 68.4203 21.2458 69.7979C21.3803 70.1632 21.4956 70.4376 21.1589 70.7522C21.0053 70.8955 21.0165 71.1695 21.0075 71.4004C20.9955 71.7118 21.0619 71.9916 21.399 71.9977C21.721 72.0038 21.7845 71.7273 21.7653 71.4393C21.7427 71.1082 21.8804 70.9489 22.2006 70.9736C23.5448 70.9729 24.8899 70.9713 26.2341 70.9724C26.42 70.9723 26.6156 71.0068 26.7828 70.8074C26.95 70.6099 26.8593 70.1925 26.3282 70.1874ZM25.917 66.54C25.6844 66.626 25.4107 66.3723 25.1953 66.1891C24.956 65.9851 24.8272 65.7209 24.8358 65.3871C24.8445 65.0262 25.0578 64.8654 25.3578 64.8218C25.6871 64.7737 25.9311 64.9347 26.0418 65.2624C26.0971 65.4253 26.0918 65.6114 26.1134 65.777C26.0303 66.0468 26.1701 66.4467 25.917 66.54Z" fill="#010100"/>
<path d="M29.0752 92.7264C29.4023 92.0766 29.7283 91.4261 30.0591 90.7788C30.2458 90.414 30.3602 89.8761 30.6555 89.7401C30.964 89.5979 31.3662 90.0309 31.7368 90.1938C31.7513 90.2005 31.7659 90.2072 31.779 90.2153C32.0081 90.3469 32.2108 90.3211 32.3457 90.0865C32.4861 89.8425 32.373 89.6581 32.1546 89.5363C31.8651 89.3739 31.5758 89.2037 31.2702 89.0798C31.0357 88.9843 30.9968 88.8968 31.1194 88.6711C31.4221 88.1159 31.7049 87.5491 31.9825 86.9811C32.1134 86.7135 32.3979 86.3922 31.9626 86.1732C31.542 85.9617 31.4322 86.3702 31.2817 86.6299C31.1233 86.9036 30.9881 87.1897 30.8451 87.4727C30.6668 87.8253 30.5734 88.3487 30.2921 88.4868C29.9927 88.6337 29.6129 88.1963 29.2514 88.0525C29.2371 88.0466 29.2225 88.0399 29.208 88.0332C28.9717 87.9087 28.7412 87.8873 28.5901 88.1481C28.4274 88.4289 28.6158 88.5842 28.8363 88.7156C29.1857 88.9245 29.7899 89.0019 29.8456 89.3224C29.9045 89.6618 29.5317 90.0776 29.3426 90.4585C29.0166 91.1147 28.6863 91.7694 28.3107 92.5189C28.0369 91.6762 27.8089 90.9568 27.5677 90.2407C27.4934 90.0207 27.3257 89.8969 27.088 89.976C26.8529 90.0543 26.8023 90.2529 26.84 90.4772C26.8551 90.5705 26.8883 90.6608 26.9174 90.7505C27.224 91.6999 27.5471 92.6449 27.8305 93.6019C27.9356 93.9578 28.0899 93.9907 28.4088 93.8804C29.3941 93.5412 30.3882 93.2259 31.3822 92.9106C31.646 92.8268 31.8766 92.7289 31.7974 92.3971C31.7078 92.0218 31.3868 92.067 31.1428 92.1358C30.4563 92.3292 29.7824 92.5673 29.0882 92.7928C29.0807 92.7551 29.07 92.7367 29.0752 92.7264Z" fill="#010100"/>
<path d="M45.3461 103.321C45.5898 103.507 45.7783 103.743 45.5546 104.07C44.7093 105.306 43.8897 106.564 42.9687 107.742C42.789 107.972 42.7409 108.166 42.6841 108.385C42.5409 108.941 42.8279 109.563 43.3704 109.717C43.7936 109.837 44.043 110.086 44.3466 110.377C44.8029 110.814 45.4886 110.973 45.9129 111.506C46.039 111.665 46.3097 111.589 46.434 111.393C46.5423 111.223 46.5282 111.012 46.3401 110.902C45.925 110.657 46.0416 110.386 46.2734 110.058C47.0377 108.976 47.7886 107.886 48.5415 106.796C48.7028 106.562 48.8286 106.308 48.5383 106.104C48.2473 105.9 48.0943 106.147 47.9487 106.356C47.183 107.456 46.417 108.556 45.659 109.661C45.4665 109.942 45.2566 110.133 44.9402 109.912C44.6287 109.695 44.7166 109.438 44.918 109.153C45.6831 108.072 46.433 106.98 47.1909 105.894C47.365 105.645 47.5193 105.391 47.1967 105.175C46.8721 104.959 46.7351 105.254 46.5849 105.47C45.8184 106.57 45.051 107.668 44.2923 108.773C44.1029 109.049 43.8863 109.186 43.6013 108.984C43.3227 108.786 43.3579 108.536 43.5523 108.259C44.395 107.059 45.2345 105.857 46.0609 104.645C46.6059 103.846 46.5124 103.231 45.759 102.682C45.5032 102.496 45.2873 102.346 45.6594 101.937C45.2062 101.997 44.8611 102.044 44.5159 102.087C44.3843 102.103 44.3091 102.155 44.3549 102.299C44.4579 102.63 44.4672 102.992 44.6649 103.376C44.9145 102.828 45.1339 103.158 45.3461 103.321Z" fill="#010100"/>
<path d="M72.4794 112.635C72.7401 112.635 73 112.597 72.9939 112.269C72.9878 111.955 72.7471 111.899 72.4759 111.901C71.5613 111.906 70.6466 111.905 69.7319 111.903C69.5095 111.903 69.2846 111.907 69.2183 112.168C69.1486 112.444 69.3421 112.605 69.5575 112.685C69.8827 112.807 70.0702 113.052 70.2272 113.324C70.6012 113.972 70.3597 114.861 69.7581 115.111C69.2157 115.337 68.6812 115.294 68.158 115.059C67.7569 114.877 67.4814 114.272 67.5773 113.849C67.7029 113.299 67.9549 112.851 68.5129 112.629C68.7108 112.551 68.7832 112.402 68.7492 112.203C68.7274 112.071 68.7074 111.91 68.5295 111.91C67.4631 111.91 66.3967 111.909 65.3303 111.935C65.1699 111.94 64.9719 112.047 65.0033 112.291C65.0338 112.529 65.1908 112.621 65.4131 112.631C65.5657 112.637 65.7183 112.634 65.87 112.634C66.3287 112.634 66.7873 112.634 67.2808 112.634C66.606 113.865 66.6827 114.826 67.4666 115.493C68.2269 116.141 69.6028 116.173 70.4059 115.559C71.2587 114.909 71.359 114.02 70.705 112.636C71.3223 112.635 71.9013 112.636 72.4794 112.635ZM65.5064 110.004C65.2344 110.004 64.9972 110.074 65.0085 110.391C65.019 110.683 65.2544 110.731 65.5029 110.73C67.831 110.729 70.1583 110.729 72.4864 110.73C72.7515 110.73 73.0035 110.679 73 110.36C72.9965 110.051 72.7706 109.997 72.489 110C71.3485 110.012 70.2071 110.005 69.0657 110.005C67.879 110.004 66.6923 110.005 65.5064 110.004Z" fill="#010100"/>
<path d="M91.6595 106.721C91.3564 106.19 91.0569 105.655 90.7456 105.129C90.6192 104.916 90.4702 104.658 90.168 104.847C89.9028 105.013 90.0243 105.246 90.1436 105.455C90.2006 105.555 90.2588 105.656 90.3157 105.757C90.9534 106.878 91.5906 107.999 92.2291 109.12C92.3634 109.355 92.4931 109.584 92.2607 109.842C91.9432 110.194 91.559 110.149 91.3036 109.704C90.6049 108.485 89.9168 107.259 89.2231 106.036C88.86 105.396 88.8565 105.393 89.4444 104.945C89.6451 104.792 89.9127 104.648 89.6918 104.362C89.4787 104.086 89.2499 104.3 89.043 104.43C88.9868 104.465 88.9231 104.497 88.8825 104.546C88.6245 104.861 88.3468 104.981 87.9617 104.732C87.8038 104.63 87.597 104.657 87.3977 104.695C86.9394 104.782 86.7388 105.133 86.5874 105.498C86.4106 105.923 86.5674 106.338 86.7837 106.716C86.8676 106.862 87.0168 106.87 87.1716 106.774C87.3121 106.688 87.4112 106.596 87.3583 106.418C87.3171 106.279 87.2487 106.152 87.228 105.998C87.1966 105.76 87.2235 105.578 87.4375 105.444C87.6144 105.334 87.801 105.343 87.9495 105.461C88.1533 105.623 87.9484 105.799 87.9024 105.95C87.5303 107.175 87.5632 108.356 88.2885 109.45C88.7056 110.079 89.4056 110.262 90.0112 109.843C90.4318 109.552 90.5336 109.741 90.7203 110.063C91.1524 110.808 91.8703 111.002 92.5045 110.472C92.9103 110.132 93.3234 109.916 93.8084 109.714C94.3727 109.48 94.7965 108.939 95.4576 108.821C95.6482 108.787 95.7577 108.593 95.6679 108.39C95.5815 108.195 95.406 108.139 95.2131 108.244C94.7777 108.48 94.5557 108.261 94.3523 107.894C93.7027 106.723 93.0358 105.561 92.373 104.397C92.3002 104.269 92.2199 104.142 92.1267 104.03C92.0209 103.903 91.8835 103.867 91.7278 103.956C91.5689 104.046 91.5465 104.194 91.5961 104.341C91.6491 104.496 91.7341 104.641 91.8153 104.784C92.4824 105.965 93.1473 107.146 93.8226 108.323C94.0207 108.668 93.9406 108.93 93.617 109.114C93.3049 109.29 93.0567 109.206 92.8775 108.88C92.5353 108.257 92.179 107.642 91.8281 107.022C91.7733 106.922 91.7164 106.821 91.6595 106.721ZM89.986 108.771C90.1081 108.983 89.9666 109.082 89.8418 109.177C89.6074 109.357 89.3398 109.46 89.0651 109.281C88.9322 109.194 88.8116 109.06 88.7357 108.92C88.2828 108.085 88.2544 107.211 88.5142 106.181C89.0453 107.118 89.5097 107.948 89.986 108.771Z" fill="#010100"/>
<path d="M108.216 88.4437C108.548 87.6753 108.25 86.7482 107.551 86.3704C106.821 85.9745 105.875 86.2468 105.414 86.9903C105.055 87.5675 105.005 88.1567 105.325 88.7286C105.653 89.3131 106.167 89.6057 106.842 89.504C107.56 89.3954 108.23 89.4622 108.811 89.8853C109.228 90.1889 109.557 90.5717 109.514 91.1735C109.421 92.4616 108.197 93.1985 107.112 92.6161C106.454 92.2632 106.045 91.6804 105.727 91.0133C105.413 90.3521 105.038 89.737 104.477 89.2729C104.055 88.9236 103.568 88.7954 103.044 89.0769C102.514 89.3611 102.364 89.8702 102.344 90.4311C102.335 90.662 102.426 90.8342 102.653 90.8417C102.882 90.8488 103.002 90.6959 103.003 90.4515C103.003 90.1284 103.02 89.7901 103.381 89.6524C103.739 89.515 103.999 89.7404 104.233 89.9593C104.633 90.3351 104.898 90.8136 105.127 91.3168C105.455 92.0354 105.908 92.6443 106.553 93.0858C107.574 93.7856 108.878 93.5961 109.552 92.6514C110.47 91.3631 110.373 90.2476 109.261 89.3551C108.908 89.072 108.475 88.9637 108.038 88.8182C108.102 88.6845 108.164 88.5658 108.216 88.4437ZM106.223 88.7144C105.789 88.4667 105.647 87.8649 105.91 87.3874C106.165 86.9258 106.765 86.7334 107.214 86.9696C107.687 87.2186 107.837 87.8152 107.554 88.3201C107.27 88.8224 106.706 88.9892 106.223 88.7144Z" fill="#010100"/>
<path d="M114.967 69.0512C114.877 69.9083 114.655 70.7289 114.306 71.5155C114.221 71.7083 114.21 71.8568 114.433 71.9577C114.64 72.0505 114.744 71.9276 114.832 71.7804C114.893 71.6782 114.935 71.5638 114.98 71.4536C115.56 70.064 115.715 68.615 115.547 67.1296C115.463 66.3839 115.284 65.653 114.973 64.9654C114.673 64.3021 113.939 63.9401 113.265 64.0913C112.561 64.2498 112.077 64.8219 112.056 65.5212C112.034 66.2918 112.474 66.8766 113.225 67.073C113.859 67.2391 114.355 66.9646 114.828 66.5186C115.011 67.388 115.055 68.2147 114.967 69.0512ZM112.636 65.5841C112.644 65.0926 113.075 64.6675 113.565 64.6696C114.084 64.6713 114.521 65.1135 114.503 65.6177C114.485 66.1124 114.058 66.5136 113.555 66.5052C113.062 66.4979 112.628 66.0627 112.636 65.5841ZM110.884 66.0406C110.999 65.5122 111.208 65.0181 111.391 64.5149C111.463 64.3175 111.454 64.155 111.248 64.063C111.048 63.9737 110.94 64.1284 110.85 64.2644C110.777 64.3749 110.729 64.5048 110.68 64.6294C110.147 66.0138 109.954 67.445 110.156 68.9138C110.27 69.7433 110.42 70.5804 110.889 71.2998C111.287 71.9089 112.047 72.108 112.719 71.8252C113.396 71.5408 113.771 70.8208 113.621 70.0972C113.48 69.4133 112.884 68.9307 112.177 68.9018C111.659 68.8803 111.256 69.0988 110.879 69.5197C110.617 68.2983 110.638 67.171 110.884 66.0406ZM112.072 71.3418C111.552 71.3065 111.151 70.84 111.203 70.3312C111.252 69.843 111.727 69.4487 112.208 69.4979C112.702 69.5482 113.099 70.0112 113.058 70.4918C113.016 70.9844 112.563 71.3757 112.072 71.3418Z" fill="#010100"/>
<path d="M104.151 46.695C103.953 46.8293 103.838 46.8327 103.666 46.6308C103.381 46.2974 103.054 45.9981 102.731 45.7002C102.567 45.549 102.357 45.4417 102.178 45.6666C102.012 45.8749 102.174 46.0376 102.324 46.1701C103.827 47.5024 104.881 49.1261 105.506 51.032C105.576 51.2464 105.668 51.4581 105.946 51.3594C106.193 51.272 106.161 51.0451 106.097 50.857C105.955 50.4408 105.816 50.0191 105.62 49.6265C105.497 49.3792 105.522 49.2641 105.747 49.1201C106.952 48.3474 108.152 47.5681 109.343 46.7734C109.56 46.6288 109.671 46.6704 109.821 46.8506C110.122 47.2131 110.444 47.5577 110.821 47.844C110.985 47.9682 111.159 48.0201 111.306 47.853C111.471 47.6652 111.384 47.5161 111.21 47.3546C110.844 47.0138 110.488 46.6581 110.154 46.286C109.164 45.1807 108.5 43.8877 108.02 42.4941C107.946 42.2788 107.851 42.0633 107.587 42.1313C107.285 42.2087 107.341 42.4683 107.4 42.6949C107.508 43.1082 107.681 43.4983 107.876 43.877C107.986 44.0913 107.96 44.2155 107.746 44.3481C107.143 44.72 106.557 45.1179 105.964 45.5051C105.36 45.8999 104.75 46.2891 104.151 46.695ZM108.026 44.8969C108.245 44.7453 108.35 44.7841 108.475 45.0073C108.647 45.3119 108.84 45.6074 109.05 45.8865C109.203 46.0894 109.15 46.1896 108.96 46.3117C107.782 47.0708 106.607 47.8348 105.438 48.6078C105.236 48.7418 105.122 48.7248 105.025 48.5032C104.988 48.4207 104.923 48.3509 104.881 48.2698C104.718 47.9499 104.273 47.6567 104.379 47.3572C104.476 47.081 104.929 46.9313 105.228 46.7313C105.579 46.497 105.935 46.2688 106.288 46.0381C106.869 45.6604 107.455 45.2907 108.026 44.8969Z" fill="#010100"/>
<path d="M93.0496 30.0688C93.4899 29.8096 93.9149 29.4238 94.4896 29.7197C94.6153 29.7844 94.7736 29.6906 94.841 29.5414C94.9148 29.3764 94.8735 29.2343 94.7331 29.1216C94.4302 28.8776 94.09 28.9352 93.7435 29.0097C93.1739 29.1336 92.7513 29.5523 92.2447 29.8009C91.3654 30.2321 90.6344 29.7311 90.7218 28.755C90.7388 28.5657 90.7752 28.3763 90.8111 28.1876C90.8893 27.779 90.9539 27.3711 90.8934 26.9547C90.8479 26.6367 90.6916 26.3936 90.4454 26.2108C90.3023 26.1051 90.1486 26.1194 90.0232 26.2647C89.919 26.3855 89.8651 26.5529 89.9821 26.6541C90.4744 27.08 90.2548 27.6163 90.1717 28.1176C90.08 28.6744 90.0008 29.2207 90.2377 29.7511C88.7146 29.818 87.9656 30.2803 87.6605 31.3374C87.3844 32.295 87.7493 33.2444 88.5883 33.7489C89.3802 34.2257 90.3635 34.1156 91.0893 33.4689C91.8578 32.7834 92.0017 31.7912 91.4659 30.6122C92.0847 30.6347 92.5631 30.3545 93.0496 30.0688ZM88.8317 33.1507C88.1841 32.7067 88.0184 31.7541 88.471 31.0779C88.9366 30.3828 89.9066 30.1877 90.5633 30.658C91.2154 31.1241 91.3573 32.0371 90.8841 32.7292C90.4214 33.4073 89.486 33.5993 88.8317 33.1507Z" fill="#010100"/>
<path d="M79.7031 65C80.2031 64.5 81.2031 63.5 82.7031 63.5C84.4364 63.5 85.5365 62.5 86.2031 62" stroke="black" stroke-linecap="round"/>
<path d="M70.7031 54.5C70.7031 55 71.1031 55.7 70.7031 56.5" stroke="black"/>
<circle cx="68.2031" cy="68" r="11.5" stroke="black"/>
<path d="M61.2031 58.999C60.2031 56.4987 60.7698 55.7339 61.2034 53.9982C61.7031 51.9981 60.5366 49.9992 59.7031 48.999C61.2031 48.999 62.6984 49.1548 63.7031 51.4994C64.7078 53.8437 63.7031 54.999 64.7031 56.9993" stroke="black"/>
<path d="M72.8737 57.3276C74.5316 55.3068 75.4503 55.458 77.1332 55.0497C79.0725 54.5791 80.2248 52.6398 80.6836 51.4492C81.3911 52.7719 81.9636 54.1614 80.4405 56.1155C78.9176 58.0694 77.4597 57.7098 76.2277 59.5029" stroke="black"/>
<path d="M56.5002 69.3503C53.8425 68.9168 53.4797 68.0368 52.2166 66.7698C50.7611 65.3098 48.4469 65.2777 47.1602 65.4756C47.9341 64.1907 48.8391 62.9902 51.3658 63.3392C53.8924 63.6882 54.3637 65.1449 56.5931 65.3204" stroke="black"/>
<path d="M63.4368 78.1394C61.7345 80.2711 60.779 80.1666 59.0352 80.6686C57.0258 81.2471 55.8478 83.2696 55.3828 84.498C54.6354 83.1975 54.0275 81.8223 55.5904 79.7653C57.1531 77.7084 58.6706 77.9951 59.9328 76.1163" stroke="black"/>
<path d="M74.5657 77.4838C75.5443 79.9419 74.9412 80.6732 74.4541 82.3529C73.8929 84.2885 75.0548 86.2624 75.8945 87.2559C74.3432 87.2204 72.8003 87.0334 71.8134 84.7268C70.8265 82.4205 71.8912 81.3194 70.9015 79.3481" stroke="black"/>
<path d="M79.4747 66.7751C82.1168 67.2414 82.4072 68.1639 83.5721 69.4957C84.9144 71.0303 87.2445 71.075 88.5586 70.874C87.6685 72.2148 86.6535 73.4666 84.1362 73.0893C81.6192 72.7121 81.2687 71.1856 79.0363 70.9914" stroke="black"/>
<path d="M66.7038 56.5C66.2026 54.5 66.7031 53 68.2021 50.5C69.7009 48.0003 68.2033 45 67.7033 44C69.3699 44.5 72.5033 46.6 71.7033 51" stroke="black"/>
<path d="M71.2031 52.5V53" stroke="black" stroke-linecap="round"/>
<path d="M59.7031 60C59.0365 59.6666 57.1031 58.4 54.7031 56C52.3031 53.6 48.7031 55 47.2031 56C47.7031 56 49.0031 56.1 50.2031 56.5" stroke="black" stroke-linecap="round"/>
<path d="M52.7031 59C53.0365 59.8889 54.5031 61.9333 57.7031 63" stroke="black" stroke-linecap="round"/>
<path d="M51.7031 57.5V58" stroke="black" stroke-linecap="round"/>
<path d="M77.7031 61C78.0365 60.5 79.6031 59.5 83.2031 59.5C86.2031 59.5 87.7031 57.5 88.7031 56C88.8698 56.6667 89.1031 58.2 88.7031 59" stroke="black" stroke-linecap="round"/>
<path d="M87.7031 60.5V61" stroke="black" stroke-linecap="round"/>
<path d="M64.7018 79C65.2031 82 64.2013 82.9949 63.7018 86C63.2031 89 65.8684 91.1667 67.7018 92C67.3693 91 67.2031 90 67.2031 89" stroke="black" stroke-linecap="round"/>
<path d="M68.7031 79.5C69.2031 80.3333 69.7031 82.7 67.7031 85.5" stroke="black" stroke-linecap="round"/>
<path d="M67.2031 87L66.7031 87.5" stroke="black" stroke-linecap="round"/>
<path d="M76.2031 76.5C77.0365 76.6667 78.77 78.0669 81.2031 80.5C83.2031 82.5 87.0365 81.3333 88.7031 80C87.8698 80 86.2031 80.1 84.2031 78.5" stroke="black" stroke-linecap="round"/>
<path d="M78.7031 73C79.8698 73.5 82.3031 75 82.7031 77" stroke="black" stroke-linecap="round"/>
<path d="M58.203 74C57.8696 75.1667 56.7031 77 52.2031 77C49.6538 77 47.7031 79.5 47.203 80.5C46.8702 79.1667 46.7048 76.2 48.7048 75" stroke="black" stroke-linecap="round"/>
<path d="M56.7031 70.5C56.0365 71 54.4031 72.1 53.2031 72.5C51.7031 73 50.7031 73 49.7031 74" stroke="black" stroke-linecap="round"/>
<defs>
<filter id="filter0_d_908_264" x="0.9" y="0.9" width="135.2" height="135.2" filterUnits="userSpaceOnUse" color-interpolation-filters="sRGB">
<feFlood flood-opacity="0" result="BackgroundImageFix"/>
<feColorMatrix in="SourceAlpha" type="matrix" values="0 0 0 0 0 0 0 0 0 0 0 0 0 0 0 0 0 0 127 0" result="hardAlpha"/>
<feOffset/>
<feGaussianBlur stdDeviation="7.55"/>
<feComposite in2="hardAlpha" operator="out"/>
<feColorMatrix type="matrix" values="0 0 0 0 1 0 0 0 0 1 0 0 0 0 1 0 0 0 0.25 0"/>
<feBlend mode="normal" in2="BackgroundImageFix" result="effect1_dropShadow_908_264"/>
<feBlend mode="normal" in="SourceGraphic" in2="effect1_dropShadow_908_264" result="shape"/>
</filter>
<clipPath id="paint0_diamond_908_264_clip_path"><path d="M121 68.5C121 64.0036 120.433 59.6281 119.362 55.446L103.862 59.4142C104.604 62.3105 105 65.3531 105 68.5H121ZM119.078 54.3807C116.666 45.7284 112.102 37.9876 106.009 31.7673L94.5786 42.9627C98.8274 47.3007 101.995 52.683 103.665 58.6757L119.078 54.3807ZM105.233 30.9905C99.0124 24.8984 91.2716 20.3336 82.6193 17.9225L78.3243 33.3353C84.317 35.0052 89.6993 38.1726 94.0373 42.4214L105.233 30.9905ZM81.554 17.6378C77.3719 16.5671 72.9964 16 68.5 16V32C71.6469 32 74.6896 32.3964 77.5858 33.1379L81.554 17.6378ZM68.5 16C64.0036 16 59.6281 16.5671 55.446 17.6377L59.4142 33.1379C62.3105 32.3964 65.3531 32 68.5 32V16ZM54.3807 17.9225C45.7284 20.3336 37.9876 24.8984 31.7673 30.9905L42.9627 42.4214C47.3007 38.1726 52.683 35.0052 58.6757 33.3353L54.3807 17.9225ZM30.9905 31.7673C24.8984 37.9876 20.3336 45.7284 17.9225 54.3807L33.3353 58.6757C35.0052 52.683 38.1726 47.3007 42.4214 42.9627L30.9905 31.7673ZM17.6378 55.446C16.5671 59.6281 16 64.0036 16 68.5H32C32 65.3531 32.3964 62.3104 33.1379 59.4142L17.6378 55.446ZM16 68.5C16 72.9964 16.5671 77.3719 17.6377 81.554L33.1379 77.5858C32.3964 74.6895 32 71.6469 32 68.5H16ZM17.9225 82.6193C20.3336 91.2716 24.8984 99.0124 30.9905 105.233L42.4214 94.0373C38.1726 89.6992 35.0052 84.317 33.3353 78.3243L17.9225 82.6193ZM31.7673 106.009C37.9876 112.102 45.7284 116.666 54.3807 119.077L58.6757 103.665C52.683 101.995 47.3007 98.8274 42.9627 94.5786L31.7673 106.009ZM55.446 119.362C59.6281 120.433 64.0036 121 68.5 121V105C65.3531 105 62.3104 104.604 59.4142 103.862L55.446 119.362ZM68.5 121C72.9964 121 77.3719 120.433 81.554 119.362L77.5858 103.862C74.6895 104.604 71.6469 105 68.5 105V121ZM82.6193 119.078C91.2716 116.666 99.0124 112.102 105.233 106.009L94.0373 94.5786C89.6992 98.8274 84.317 101.995 78.3243 103.665L82.6193 119.078ZM106.009 105.233C112.102 99.0124 116.666 91.2716 119.077 82.6193L103.665 78.3243C101.995 84.317 98.8274 89.6993 94.5786 94.0373L106.009 105.233ZM119.362 81.554C120.433 77.3719 121 72.9964 121 68.5H105C105 71.6469 104.604 74.6896 103.862 77.5858L119.362 81.554Z"/></clipPath><clipPath id="paint1_diamond_908_264_clip_path"><circle cx="68.5" cy="68.5" r="35.5"/></clipPath><linearGradient id="paint0_diamond_908_264" x1="0" y1="0" x2="500" y2="500" gradientUnits="userSpaceOnUse">
<stop stop-color="#F2B705"/>
<stop offset="1" stop-color="#F7971D"/>
</linearGradient>
<linearGradient id="paint1_diamond_908_264" x1="0" y1="0" x2="500" y2="500" gradientUnits="userSpaceOnUse">
<stop stop-color="#F2B705"/>
<stop offset="1" stop-color="#F7971D"/>
</linearGradient>
</defs>
</svg>
