<svg width="116" height="102" viewBox="0 0 116 102" fill="none" xmlns="http://www.w3.org/2000/svg">
<path d="M52.4877 3L52.4877 18.4074" stroke="#F7971D" stroke-width="5" stroke-linecap="round"/>
<path d="M52.4877 83.5928L52.4877 99.0002" stroke="#F7971D" stroke-width="5" stroke-linecap="round"/>
<path d="M86.8581 17.2222L75.0062 29.074" stroke="#F7971D" stroke-width="5" stroke-linecap="round"/>
<path d="M29.9692 74.1113L18.1174 85.9632" stroke="#F7971D" stroke-width="5" stroke-linecap="round"/>
<path d="M115.178 52.6534C115.764 52.0676 115.764 51.1179 115.178 50.5321L105.632 40.9862C105.046 40.4004 104.097 40.4004 103.511 40.9862C102.925 41.572 102.925 42.5217 103.511 43.1075L111.996 51.5928L103.511 60.0781C102.925 60.6638 102.925 61.6136 103.511 62.1994C104.097 62.7852 105.046 62.7852 105.632 62.1994L115.178 52.6534ZM84.4877 50.0928C83.6593 50.0928 82.9877 50.7643 82.9877 51.5928C82.9877 52.4212 83.6593 53.0928 84.4877 53.0928V50.0928ZM114.117 50.0928H84.4877V53.0928H114.117V50.0928Z" fill="#F7971D"/>
<path d="M19.3026 51.5928L2.70996 51.5928" stroke="#F7971D" stroke-width="5" stroke-linecap="round"/>
<path d="M86.8581 85.9629L75.0062 74.111" stroke="#F7971D" stroke-width="5" stroke-linecap="round"/>
<path d="M29.9692 29.0742L18.1174 17.2224" stroke="#F7971D" stroke-width="5" stroke-linecap="round"/>
<circle cx="52.4877" cy="51.5927" r="20.0185" stroke="#F7971D" stroke-width="5"/>
</svg>
