<svg width="63" height="72" viewBox="0 0 63 72" fill="none" xmlns="http://www.w3.org/2000/svg">
<path d="M31.3471 71C47.5779 65.4054 59.1458 52.3999 60.9622 35.8406C61.4647 28.6522 61.4216 21.4369 60.8329 14.2539C60.7556 13.122 60.259 12.0597 59.4402 11.2744C58.6214 10.4891 57.5392 10.0373 56.405 10.0073C49.0623 9.78117 40.5278 8.55708 33.9335 2.06151C33.2448 1.38138 32.3159 1 31.348 1C30.3801 1 29.4512 1.38138 28.7625 2.06151C22.1664 8.55708 13.6319 9.78117 6.29095 10.0073C5.1565 10.0368 4.07385 10.4884 3.25465 11.2738C2.43545 12.0591 1.93861 13.1217 1.86126 14.2539C1.27248 21.4359 1.22928 28.6522 1.73203 35.8406C3.54483 52.3999 15.1162 65.4054 31.3471 71Z" stroke="#E69126" stroke-width="2" stroke-linecap="round" stroke-linejoin="round"/>
<path d="M31.3469 36.9063C35.6084 36.9063 39.063 33.4517 39.063 29.1902C39.063 24.9287 35.6084 21.4741 31.3469 21.4741C27.0855 21.4741 23.6309 24.9287 23.6309 29.1902C23.6309 33.4517 27.0855 36.9063 31.3469 36.9063Z" stroke="#E69126" stroke-width="2" stroke-linecap="round" stroke-linejoin="round"/>
<path d="M44.9659 50.5254C44.9659 46.9129 43.5308 43.4483 40.9764 40.8938C38.4219 38.3394 34.9573 36.9043 31.3448 36.9043C27.7322 36.9043 24.2676 38.3394 21.7132 40.8938C19.1587 43.4483 17.7236 46.9129 17.7236 50.5254" stroke="#E69126" stroke-width="2" stroke-linecap="round" stroke-linejoin="round"/>
</svg>
