<svg width="86" height="87" viewBox="0 0 86 87" fill="none" xmlns="http://www.w3.org/2000/svg">
<path d="M11.491 13.7665C6.0187 13.6741 3.39386 14.7535 1.93654 18.5671C1.0546 20.8771 1 23.4139 1 25.8919V68.3665C1.45357 71.0335 2.20953 72.8017 4.11622 74.2465C7.22823 76.6027 11.3608 76.9261 15.2036 77.6191C23.6199 79.1437 30.94 81.7267 42.9723 85.1665M42.9723 85.1665C54.1143 81.7183 62.0812 79.3285 69.5483 77.9509C75.5162 76.8505 83.1135 76.1071 84.4574 70.1809C84.8102 68.6269 84.9698 66.6739 84.9404 64.1665V31.6837C84.9404 25.3669 85.898 16.8955 80.1359 14.3125C78.6912 13.6699 76.8727 13.5565 74.4494 13.7665M42.9723 85.1665V55.7665M42.9681 43.1665C48.5351 43.1632 53.873 40.9492 57.8083 37.0113C61.7436 33.0734 63.9543 27.7339 63.9543 22.1665M42.9681 43.1665C37.4011 43.1632 32.0632 40.9492 28.1279 37.0113C24.1926 33.0734 21.982 27.7339 21.982 22.1665M42.9681 43.1665C47.6046 43.1665 51.3634 33.7627 51.3634 22.1665C51.3634 10.5703 47.6046 1.1665 42.9639 1.1665M63.9543 22.1665C63.9543 10.5703 54.5594 1.1665 42.9681 1.1665M63.9543 22.1665C58.7908 24.9665 43.1675 28.8865 21.982 22.1665M42.9681 1.1665C31.3768 1.1665 21.982 10.5703 21.982 22.1665M42.9681 1.1665C38.3316 1.1665 34.5728 10.5703 34.5728 22.1665C34.5728 33.7627 38.3316 43.1665 42.9639 43.1665" stroke="#E69126" stroke-width="2" stroke-linecap="round" stroke-linejoin="round"/>
</svg>
