<svg width="85" height="85" viewBox="0 0 85 85" fill="none" xmlns="http://www.w3.org/2000/svg">
<path d="M80.1135 55.7944C78.206 60.3724 70.9575 71.3595 57.2236 78.6843" stroke="#F7971D" stroke-width="1.5" stroke-linecap="round"/>
<path d="M5.72248 55.7944C7.62996 60.3724 14.8784 71.3595 28.6123 78.6843" stroke="#F7971D" stroke-width="1.5" stroke-linecap="round"/>
<path d="M57.2731 4.66603C61.5055 6.39529 71.6802 13.0073 78.52 25.6213" stroke="#F7971D" stroke-width="1.5" stroke-linecap="round"/>
<path d="M27.5765 4.36623C23.3441 6.09548 13.1694 12.7075 6.32961 25.3215" stroke="#F7971D" stroke-width="1.5" stroke-linecap="round"/>
<mask id="path-5-inside-1_3242_1555" fill="white">
<path d="M53.6016 30.8047L84.4062 42.2031L53.6016 53.6016L42.2031 84.4062L30.8047 53.6016L0 42.2031L30.8047 30.8047L42.2031 0L53.6016 30.8047ZM42.9189 34.335C38.9684 34.335 35.7656 37.5377 35.7656 41.4883C35.7658 45.4387 38.9685 48.6406 42.9189 48.6406C46.8693 48.6405 50.0712 45.4386 50.0713 41.4883C50.0713 37.5378 46.8694 34.3351 42.9189 34.335Z"/>
</mask>
<path d="M53.6016 30.8047L51.7259 31.4987L52.045 32.3612L52.9075 32.6804L53.6016 30.8047ZM84.4062 42.2031L85.1003 44.0788L90.1695 42.2031L85.1003 40.3274L84.4062 42.2031ZM53.6016 53.6016L52.9075 51.7259L52.045 52.045L51.7259 52.9075L53.6016 53.6016ZM42.2031 84.4062L40.3274 85.1003L42.2031 90.1695L44.0788 85.1003L42.2031 84.4062ZM30.8047 53.6016L32.6804 52.9075L32.3612 52.045L31.4987 51.7259L30.8047 53.6016ZM0 42.2031L-0.694055 40.3274L-5.76323 42.2031L-0.694055 44.0788L0 42.2031ZM30.8047 30.8047L31.4987 32.6804L32.3612 32.3612L32.6804 31.4987L30.8047 30.8047ZM42.2031 0L44.0788 -0.694055L42.2031 -5.76323L40.3274 -0.694055L42.2031 0ZM42.9189 34.335L42.919 32.335H42.9189V34.335ZM35.7656 41.4883L33.7656 41.4883L33.7656 41.4883L35.7656 41.4883ZM42.9189 48.6406L42.9189 50.6406L42.919 50.6406L42.9189 48.6406ZM50.0713 41.4883L52.0713 41.4883V41.4883H50.0713ZM53.6016 30.8047L52.9075 32.6804L83.7122 44.0788L84.4062 42.2031L85.1003 40.3274L54.2956 28.929L53.6016 30.8047ZM84.4062 42.2031L83.7122 40.3274L52.9075 51.7259L53.6016 53.6016L54.2956 55.4773L85.1003 44.0788L84.4062 42.2031ZM53.6016 53.6016L51.7259 52.9075L40.3274 83.7122L42.2031 84.4062L44.0788 85.1003L55.4773 54.2956L53.6016 53.6016ZM42.2031 84.4062L44.0788 83.7122L32.6804 52.9075L30.8047 53.6016L28.929 54.2956L40.3274 85.1003L42.2031 84.4062ZM30.8047 53.6016L31.4987 51.7259L0.694055 40.3274L0 42.2031L-0.694055 44.0788L30.1106 55.4773L30.8047 53.6016ZM0 42.2031L0.694055 44.0788L31.4987 32.6804L30.8047 30.8047L30.1106 28.929L-0.694055 40.3274L0 42.2031ZM30.8047 30.8047L32.6804 31.4987L44.0788 0.694055L42.2031 0L40.3274 -0.694055L28.929 30.1106L30.8047 30.8047ZM42.2031 0L40.3274 0.694055L51.7259 31.4987L53.6016 30.8047L55.4773 30.1106L44.0788 -0.694055L42.2031 0ZM42.9189 34.335V32.335C37.8638 32.335 33.7656 36.4332 33.7656 41.4883H35.7656H37.7656C37.7656 38.6423 40.073 36.335 42.9189 36.335V34.335ZM35.7656 41.4883L33.7656 41.4883C33.7658 46.5436 37.8642 50.6406 42.9189 50.6406V48.6406V46.6406C40.0728 46.6406 37.7657 44.3338 37.7656 41.4882L35.7656 41.4883ZM42.9189 48.6406L42.919 50.6406C47.9739 50.6405 52.0711 46.5432 52.0713 41.4883L50.0713 41.4883L48.0713 41.4882C48.0712 44.334 45.7647 46.6405 42.9189 46.6406L42.9189 48.6406ZM50.0713 41.4883H52.0713C52.0713 36.4336 47.9742 32.3351 42.919 32.335L42.9189 34.335L42.9189 36.335C45.7645 36.3351 48.0713 38.6421 48.0713 41.4883H50.0713Z" fill="#E69126" mask="url(#path-5-inside-1_3242_1555)"/>
<path d="M67.6178 65.9909L55.6436 61.8924L58.0291 56.9746L62.4765 54.4261L67.6178 65.9909Z" fill="#F7971D"/>
<path d="M18.1889 65.3713L30.163 61.2727L27.7775 56.355L23.3302 53.8065L18.1889 65.3713Z" fill="#F7971D"/>
<path d="M18.2457 16.3338L22.4349 28.384L27.4833 25.7096L30.1037 21.0397L18.2457 16.3338Z" fill="#F7971D"/>
<path d="M67.7992 16.3338L63.61 28.384L58.5616 25.7096L55.9412 21.0397L67.7992 16.3338Z" fill="#F7971D"/>
</svg>
