<svg width="88" height="96" viewBox="0 0 88 96" fill="none" xmlns="http://www.w3.org/2000/svg">
<path d="M21.4505 3.37061L21.4505 18.778" stroke="#F7971D" stroke-width="5" stroke-linecap="round"/>
<path d="M66.4875 3.37061L66.4875 18.778" stroke="#F7971D" stroke-width="5" stroke-linecap="round"/>
<path d="M3.67273 34.1855L84.2653 34.1855" stroke="#F7971D" stroke-width="5" stroke-linecap="round"/>
<rect x="2.61719" y="10.6113" width="82.7037" height="82.7037" rx="3.5" stroke="#F7971D" stroke-width="5"/>
<path d="M24.2765 61.6008C24.2765 57.8168 24.8925 54.8688 26.1245 52.7568C27.3565 50.6228 29.5125 49.5558 32.5925 49.5558C35.6505 49.5558 37.7955 50.6228 39.0275 52.7568C40.2595 54.8688 40.8755 57.8168 40.8755 61.6008C40.8755 65.4508 40.2595 68.4428 39.0275 70.5768C37.7955 72.7108 35.6505 73.7778 32.5925 73.7778C29.5125 73.7778 27.3565 72.7108 26.1245 70.5768C24.8925 68.4428 24.2765 65.4508 24.2765 61.6008ZM37.9055 61.6008C37.9055 59.6868 37.7735 58.0698 37.5095 56.7498C37.2675 55.4078 36.7505 54.3298 35.9585 53.5158C35.1885 52.7018 34.0665 52.2948 32.5925 52.2948C31.0965 52.2948 29.9525 52.7018 29.1605 53.5158C28.3905 54.3298 27.8735 55.4078 27.6095 56.7498C27.3675 58.0698 27.2465 59.6868 27.2465 61.6008C27.2465 63.5808 27.3675 65.2418 27.6095 66.5838C27.8735 67.9258 28.3905 69.0038 29.1605 69.8178C29.9525 70.6318 31.0965 71.0388 32.5925 71.0388C34.0665 71.0388 35.1885 70.6318 35.9585 69.8178C36.7505 69.0038 37.2675 67.9258 37.5095 66.5838C37.7735 65.2418 37.9055 63.5808 37.9055 61.6008ZM59.6832 52.2618L50.5092 73.7778H47.4732L56.7792 52.5588H44.0412V49.9848H59.6832V52.2618Z" fill="#F7971D"/>
</svg>
