<svg width="93" height="93" viewBox="0 0 93 93" fill="none" xmlns="http://www.w3.org/2000/svg">
<rect x="2" y="2" width="89" height="89" rx="44.5" stroke="#F7971D" stroke-width="4"/>
<path d="M16.4559 55.102C18.6572 53.334 20.3819 51.8867 21.6299 50.76C22.8779 49.616 23.9266 48.4287 24.7759 47.198C25.6426 45.95 26.0759 44.728 26.0759 43.532C26.0759 42.4053 25.7986 41.5213 25.2439 40.88C24.7065 40.2213 23.8312 39.892 22.6179 39.892C21.4392 39.892 20.5205 40.2647 19.8619 41.01C19.2205 41.738 18.8739 42.7173 18.8219 43.948H16.5339C16.6032 42.0067 17.1925 40.5073 18.3019 39.45C19.4112 38.3927 20.8412 37.864 22.5919 37.864C24.3772 37.864 25.7899 38.358 26.8299 39.346C27.8872 40.334 28.4159 41.6947 28.4159 43.428C28.4159 44.8667 27.9826 46.2707 27.1159 47.64C26.2666 48.992 25.2959 50.188 24.2039 51.228C23.1119 52.2507 21.7165 53.4467 20.0179 54.816H28.9619V56.792H16.4559V55.102ZM31.697 47.406C31.697 44.4247 32.1823 42.102 33.153 40.438C34.1236 38.7567 35.8223 37.916 38.249 37.916C40.6583 37.916 42.3483 38.7567 43.319 40.438C44.2896 42.102 44.775 44.4247 44.775 47.406C44.775 50.4393 44.2896 52.7967 43.319 54.478C42.3483 56.1593 40.6583 57 38.249 57C35.8223 57 34.1236 56.1593 33.153 54.478C32.1823 52.7967 31.697 50.4393 31.697 47.406ZM42.435 47.406C42.435 45.898 42.331 44.624 42.123 43.584C41.9323 42.5267 41.525 41.6773 40.901 41.036C40.2943 40.3947 39.4103 40.074 38.249 40.074C37.0703 40.074 36.169 40.3947 35.545 41.036C34.9383 41.6773 34.531 42.5267 34.323 43.584C34.1323 44.624 34.037 45.898 34.037 47.406C34.037 48.966 34.1323 50.2747 34.323 51.332C34.531 52.3893 34.9383 53.2387 35.545 53.88C36.169 54.5213 37.0703 54.842 38.249 54.842C39.4103 54.842 40.2943 54.5213 40.901 53.88C41.525 53.2387 41.9323 52.3893 42.123 51.332C42.331 50.2747 42.435 48.966 42.435 47.406ZM47.7371 55.102C49.9385 53.334 51.6631 51.8867 52.9111 50.76C54.1591 49.616 55.2078 48.4287 56.0571 47.198C56.9238 45.95 57.3571 44.728 57.3571 43.532C57.3571 42.4053 57.0798 41.5213 56.5251 40.88C55.9878 40.2213 55.1125 39.892 53.8991 39.892C52.7205 39.892 51.8018 40.2647 51.1431 41.01C50.5018 41.738 50.1551 42.7173 50.1031 43.948H47.8151C47.8845 42.0067 48.4738 40.5073 49.5831 39.45C50.6925 38.3927 52.1225 37.864 53.8731 37.864C55.6585 37.864 57.0711 38.358 58.1111 39.346C59.1685 40.334 59.6971 41.6947 59.6971 43.428C59.6971 44.8667 59.2638 46.2707 58.3971 47.64C57.5478 48.992 56.5771 50.188 55.4851 51.228C54.3931 52.2507 52.9978 53.4467 51.2991 54.816H60.2431V56.792H47.7371V55.102ZM73.4562 42.674C73.0749 40.75 71.8875 39.788 69.8942 39.788C68.3515 39.788 67.1989 40.386 66.4362 41.582C65.6735 42.7607 65.3009 44.7107 65.3182 47.432C65.7169 46.5307 66.3755 45.8287 67.2942 45.326C68.2302 44.806 69.2702 44.546 70.4142 44.546C72.1995 44.546 73.6209 45.1007 74.6782 46.21C75.7529 47.3193 76.2902 48.8533 76.2902 50.812C76.2902 51.9907 76.0562 53.048 75.5882 53.984C75.1375 54.92 74.4442 55.6653 73.5082 56.22C72.5895 56.7747 71.4715 57.052 70.1542 57.052C68.3689 57.052 66.9735 56.6533 65.9682 55.856C64.9629 55.0587 64.2609 53.958 63.8622 52.554C63.4635 51.15 63.2642 49.4167 63.2642 47.354C63.2642 40.9927 65.4829 37.812 69.9202 37.812C71.6189 37.812 72.9535 38.2713 73.9242 39.19C74.8949 40.1087 75.4669 41.27 75.6402 42.674H73.4562ZM69.9202 46.548C69.1749 46.548 68.4729 46.704 67.8142 47.016C67.1555 47.3107 66.6182 47.77 66.2022 48.394C65.8035 49.0007 65.6042 49.746 65.6042 50.63C65.6042 51.9473 65.9855 53.022 66.7482 53.854C67.5109 54.6687 68.6029 55.076 70.0242 55.076C71.2375 55.076 72.1995 54.7033 72.9102 53.958C73.6382 53.1953 74.0022 52.1727 74.0022 50.89C74.0022 49.538 73.6555 48.4807 72.9622 47.718C72.2689 46.938 71.2549 46.548 69.9202 46.548Z" fill="#F7971D"/>
</svg>
